<?xml version="1.0" encoding="iso-8859-1"?>
<!-- Generator: Adobe Illustrator 16.0.0, SVG Export Plug-In . SVG Version: 6.00 Build 0)  -->
<!DOCTYPE svg PUBLIC "-//W3C//DTD SVG 1.1//EN" "http://www.w3.org/Graphics/SVG/1.1/DTD/svg11.dtd">
<svg version="1.1" id="Capa_1" xmlns="http://www.w3.org/2000/svg" xmlns:xlink="http://www.w3.org/1999/xlink" x="0px" y="0px"
	 width="550.774px" height="550.774px" viewBox="0 0 550.774 550.774" style="enable-background:new 0 0 550.774 550.774;"
	 xml:space="preserve">
<g>
	<path d="M123.587,213.6c45.9,23.9,7.3,49.6,21.4,77.701l-19,10.398C107.087,266.2,147.487,246.6,123.587,213.6z M136.487,340.9
		l19.6,33.699c4.9,8.6,15.3,11,23.9,6.1l71.6-41.6l-55.7-53.199l-53.3,30.5C134.587,321.9,131.587,332.301,136.487,340.9z
		 M469.987,470c-107.699,107.699-281.5,107.699-389.2,0c-107.7-107.699-107.7-282.1,0-389.2c53.9-53.9,124.2-80.8,194.6-80.8l0,0
		c70.401,0,140.8,26.9,194.6,80.8C577.688,188.5,577.688,362.301,469.987,470z M381.888,439.4l-270.5-270.5
		c-49,75.9-40.4,178.1,25.7,244.799C203.787,479.801,305.987,488.4,381.888,439.4z M413.688,137.1c-39.2-39.2-91.2-58.8-143.2-57.5
		l0,0c-35.5,0.6-70.4,11.6-101.6,31.2l270.5,269.899C488.388,306,479.788,203.8,413.688,137.1z M403.888,186
		c-5.5-9.8-13.5-12.2-23.9-6.1l-63.6,36.7l53.9,54.5l46.5-26.9c8.6-4.9,11-15.3,6.699-23.9L403.888,186z"/>
</g>
<g>
</g>
<g>
</g>
<g>
</g>
<g>
</g>
<g>
</g>
<g>
</g>
<g>
</g>
<g>
</g>
<g>
</g>
<g>
</g>
<g>
</g>
<g>
</g>
<g>
</g>
<g>
</g>
<g>
</g>
</svg>
