<?xml version="1.0" encoding="iso-8859-1"?>
<!-- Generator: Adobe Illustrator 16.0.0, SVG Export Plug-In . SVG Version: 6.00 Build 0)  -->
<!DOCTYPE svg PUBLIC "-//W3C//DTD SVG 1.1//EN" "http://www.w3.org/Graphics/SVG/1.1/DTD/svg11.dtd">
<svg version="1.1" id="Capa_1" xmlns="http://www.w3.org/2000/svg" xmlns:xlink="http://www.w3.org/1999/xlink" x="0px" y="0px"
	 width="549.6px" height="549.6px" viewBox="0 0 549.6 549.6" style="enable-background:new 0 0 549.6 549.6;" xml:space="preserve"
	>
<g>
	<path d="M486.957,504.899h-27.5H327.856v33.7c0,6.101-4.899,11-11,11h-36.1c-6.1,0-11-4.899-11-11v-33.7h-131.6h-26.9
		c-30.6,0-51.4-37.3-23.9-64.899l84.5-86.3h-20.8h-24.5c-28.2,0-47.1-34.301-22-59.4l11.6-11.6c9.2,0,18.4-0.601,27.5-3.101
		c47.1-12.9,78.3-45.9,87.5-83.8c9.2-37.3-3.1-79.6-39.8-108.3l71-72.2c9.8-10.4,23.3-15.3,36.1-15.3l0,0
		c12.899,0,25.7,4.9,35.5,15.3l26.899,26.9l53.2,54.5l36.7,37.3c19.6,20.2,5.5,47.1-17.1,47.1h-19.601h-33l64.3,65.5l47.101,47.7
		c25.1,25.7,6.7,59.4-21.4,59.4h-25.1h-20.2l33,34.3l51.4,52C537.757,467.6,518.157,504.899,486.957,504.899z M140.557,267.5
		c86.9-23.3,111.4-120.6,42.8-172.6c-5.5-4.3-8.6-1.8-8.6,1.8c-1.8,15.3-9.8,37.3-28.8,37.3c-12.2-22-18.4-47.7-15.3-74.7
		c0.6-6.7,1.8-13.5,3.7-19.6c0.6-2.4,0-3.7-1.2-3.7c-1.2-0.6-4.3,0.6-6.7,3.1c-22.6,19.6-38.6,47.1-42.2,78.9
		c-2.4,22,1.2,42.8,9.2,61.8c-26.9-7.3-38.6-43.5-22.6-80.8c1.2-2.4-2.4-5.5-7.3-2.4c-22.6,17.7-37.3,45.3-37.3,76.5
		C28.557,235,81.257,283.399,140.557,267.5z"/>
</g>
<g>
</g>
<g>
</g>
<g>
</g>
<g>
</g>
<g>
</g>
<g>
</g>
<g>
</g>
<g>
</g>
<g>
</g>
<g>
</g>
<g>
</g>
<g>
</g>
<g>
</g>
<g>
</g>
<g>
</g>
</svg>
