<?xml version="1.0" encoding="iso-8859-1"?>
<!-- Generator: Adobe Illustrator 19.0.0, SVG Export Plug-In . SVG Version: 6.00 Build 0)  -->
<svg version="1.1" id="Layer_1" xmlns="http://www.w3.org/2000/svg" xmlns:xlink="http://www.w3.org/1999/xlink" x="0px" y="0px"
	 viewBox="0 0 512 512" style="enable-background:new 0 0 512 512;" xml:space="preserve">
<path style="fill:#CCF7F5;" d="M84.977,268.676c-40.124,0-72.768-32.644-72.768-72.771c0-11.702,2.84-23.271,8.234-33.614
	c0.331-0.787,0.714-1.557,1.148-2.308L66.66,81.918c3.745-6.487,10.667-10.484,18.157-10.484l0,0
	c7.491,0,14.413,3.996,18.159,10.484l42.286,73.246c8.169,12.069,12.482,26.133,12.482,40.74
	C157.745,236.03,125.101,268.676,84.977,268.676z"/>
<g>
	<path style="fill:#74D6D0;" d="M413.994,236.311c-47.311,0-85.803-38.49-85.803-85.801c0-13.875,3.387-27.588,9.814-39.835
		c0.348-0.848,0.755-1.679,1.222-2.487l56.408-97.705C399.38,3.996,406.304,0,413.793,0l0,0c7.491,0,14.413,3.996,18.157,10.484
		l53.02,91.838c9.701,14.259,14.821,30.898,14.821,48.188C499.793,197.821,461.305,236.311,413.994,236.311z"/>
	<path style="fill:#74D6D0;" d="M252.91,512c-62.019,0-112.474-50.458-112.474-112.477c0-18.315,4.5-36.414,13.04-52.548
		c0.383-0.983,0.843-1.944,1.38-2.874l79.615-137.899c3.745-6.487,10.667-10.484,18.157-10.484c7.491,0,14.413,3.996,18.157,10.484
		l74.996,129.902c12.826,18.746,19.599,40.654,19.599,63.418C365.382,461.542,314.927,512,252.91,512z"/>
</g>
<path style="fill:#CCF7F5;" d="M252.91,512c-62.019,0-112.474-50.458-112.474-112.477c0-18.315,4.5-36.414,13.04-52.548
	c0.383-0.983,0.843-1.944,1.38-2.874l79.615-137.899c3.745-6.487,10.667-10.484,18.157-10.484L252.91,512z"/>
<g>
</g>
<g>
</g>
<g>
</g>
<g>
</g>
<g>
</g>
<g>
</g>
<g>
</g>
<g>
</g>
<g>
</g>
<g>
</g>
<g>
</g>
<g>
</g>
<g>
</g>
<g>
</g>
<g>
</g>
</svg>
