<?xml version="1.0" encoding="iso-8859-1"?>
<!-- Generator: Adobe Illustrator 16.0.0, SVG Export Plug-In . SVG Version: 6.00 Build 0)  -->
<!DOCTYPE svg PUBLIC "-//W3C//DTD SVG 1.1//EN" "http://www.w3.org/Graphics/SVG/1.1/DTD/svg11.dtd">
<svg version="1.1" id="Capa_1" xmlns="http://www.w3.org/2000/svg" xmlns:xlink="http://www.w3.org/1999/xlink" x="0px" y="0px"
	 width="550.801px" height="550.801px" viewBox="0 0 550.801 550.801" style="enable-background:new 0 0 550.801 550.801;"
	 xml:space="preserve">
<g>
	<path d="M301.3,381.9c0,8-6.7,14.699-14.7,14.699s-14.7-6.699-14.7-14.699s6.7-14.701,14.7-14.701S301.3,373.301,301.3,381.9z
		 M273.2,151.8c0-35.5-17.7-67.3-44.1-86.9c-6.1-4.3-9.2-1.8-9.2,1.8c-2.4,16.5-11,41-31.8,41c-13.5-23.9-20.2-52-17.1-82
		c0.6-7.3,1.8-14.7,3.7-22c0.6-2.4,0-3.7-1.8-3.7l0,0c-1.8,0-4.3,1.2-6.7,3.1c-25.1,21.4-42.2,52-46.5,87.5
		c-2.4,23.9,1.2,47.1,9.8,67.9c-29.4-8-42.2-48.3-24.5-88.7c1.8-2.4-2.4-6.1-7.3-2.4C72.6,87,56.1,117.6,56.1,151.9
		c0,60,49,108.3,108.3,108.3C224.8,260.1,273.2,211.8,273.2,151.8z M365,366.6c-8,0-14.7,6.701-14.7,14.701S357,396,365,396
		s14.7-6.699,14.7-14.699C379.6,373.301,372.9,366.6,365,366.6z M494.701,248.5v266.199c0,19.602-15.9,36.102-36.101,36.102H192.4
		c-19.6,0-36.1-15.9-36.1-36.102v-237.5c2.4,0,5.5,0.602,8,0.602c47.1,0,88.1-26.301,108.9-64.901l0,0h185.4
		C478.8,213,494.701,228.9,494.701,248.5z M423.1,381.9c0-53.9-43.5-97.9-97.899-97.9l0,0c-53.9,0-97.9,43.5-97.9,97.9
		c0,53.9,43.5,97.9,97.9,97.9C379.6,479.801,423.1,435.699,423.1,381.9z"/>
</g>
<g>
</g>
<g>
</g>
<g>
</g>
<g>
</g>
<g>
</g>
<g>
</g>
<g>
</g>
<g>
</g>
<g>
</g>
<g>
</g>
<g>
</g>
<g>
</g>
<g>
</g>
<g>
</g>
<g>
</g>
</svg>
