<?xml version="1.0" encoding="iso-8859-1"?>
<!-- Generator: Adobe Illustrator 17.1.0, SVG Export Plug-In . SVG Version: 6.00 Build 0)  -->
<!DOCTYPE svg PUBLIC "-//W3C//DTD SVG 1.1//EN" "http://www.w3.org/Graphics/SVG/1.1/DTD/svg11.dtd">
<svg version="1.1" id="Capa_1" xmlns="http://www.w3.org/2000/svg" xmlns:xlink="http://www.w3.org/1999/xlink" x="0px" y="0px"
	 viewBox="0 0 299.067 299.067" style="enable-background:new 0 0 299.067 299.067;" xml:space="preserve">
<path d="M293.583,237.018c-6.403,5.255-15.855,4.323-21.111-2.081l-0.085-0.109c-2.224-2.707-4.923-4.21-7.598-4.21
	c-0.002,0-0.004,0-0.006,0c-2.681,0-5.384,1.268-7.612,3.99c-7.928,9.686-19.153,15.01-30.816,15.01c-0.011,0-0.022,0-0.033,0
	c-11.649,0-22.867-5.282-30.784-14.919l-0.109,0.11c-1.936-2.358-4.238-3.8-6.57-4.128c-0.252-0.026-0.504-0.063-0.755-0.063
	c-0.002,0-0.004,0-0.006,0c-2.681,0-5.384,1.269-7.612,3.99c-7.928,9.686-19.153,15.01-30.817,15.01c-0.011,0-0.021,0-0.032,0
	c-11.649,0-22.867-5.285-30.783-14.922l-0.036,0.197c-2.277-2.771-4.977-4.274-7.651-4.274c-0.002,0-0.004,0-0.006,0
	c-2.658,0-5.34,1.366-7.558,4.046c-0.024,0.03-0.049-0.052-0.071-0.024c-7.911,9.664-19.138,14.978-30.802,14.978
	c-0.01,0-0.021,0-0.031,0c-11.649,0-22.867-5.279-30.783-14.917l-0.109,0.113c-2.22-2.703-4.919-4.196-7.594-4.196
	c-0.002,0-0.003,0-0.004,0c-2.678,0.001-5.379,1.498-7.606,4.215c-5.254,6.406-14.703,7.341-21.11,2.089
	c-6.406-5.253-7.341-14.704-2.089-21.11c7.913-9.65,19.137-15.188,30.793-15.193c0.005,0,0.011,0,0.016,0
	c11.649,0,22.867,5.403,30.783,15.039l0.109,0.01c2.221,2.704,4.92,3.951,7.595,3.951c0.002,0,0.004,0,0.006,0
	c2.659,0,5.341-1.239,7.559-3.92c0.024-0.029,0.048,0.181,0.07,0.154c7.911-9.664,19.138-15.233,30.802-15.233
	c0.01,0,0.021,0,0.031,0c11.649,0,22.867,5.413,30.783,15.05l0.036-0.069c2.277,2.771,4.977,4.019,7.651,4.019
	c0.002,0,0.004,0,0.006,0c2.207,0,4.423-0.788,6.383-2.666c0.307-0.474,0.635-0.694,1.002-1.141
	c7.913-9.65,19.137-15.188,30.792-15.193c0.005,0,0.012,0,0.017,0c0.805,0,1.607,0.002,2.408,0.054
	c10.875,0.631,21.214,6.022,28.644,15.068l0.089,0.046c0.337,0.41,0.646,0.711,0.933,1.145c1.965,1.892,4.195,2.687,6.414,2.687
	c0.002,0,0.004,0,0.006,0c2.681,0,5.383-1.268,7.611-3.99c7.929-9.687,19.155-15.01,30.819-15.01c0.01,0,0.021,0,0.031,0
	c11.649,0,22.867,5.535,30.783,15.173l0.089,0.118C300.917,222.313,299.987,231.762,293.583,237.018z M264.789,124.618
	c-0.01,0-0.021,0-0.032,0c-11.624,0-22.815,5.66-30.722,15.265c-0.032,0.039-0.065,0.274-0.098,0.314
	c-2.228,2.722-4.931,4.421-7.61,4.421c-0.002,0-0.005,0-0.007,0c-2.218,0-4.448-1.168-6.413-3.059
	c-0.274-0.415-0.569-0.884-0.889-1.277l-0.133-0.194c-7.434-9.051-17.78-14.616-28.661-15.243c-0.795-0.052-1.591-0.227-2.391-0.227
	c-0.005,0-0.01,0-0.015,0c-11.656,0-22.88,5.669-30.793,15.319c-0.367,0.447-0.696,1.104-1.003,1.578
	c-1.959,1.878-4.177,3.103-6.383,3.103c-0.003,0-0.005,0-0.007,0c-2.675,0-5.374-1.62-7.606-4.338l-0.08-0.298
	c-7.916-9.638-19.134-15.364-30.783-15.364c-0.011,0-0.021,0-0.032,0c-11.664,0-22.891,5.824-30.817,15.509
	c-2.229,2.723-4.932,4.491-7.612,4.491c-0.003,0-0.004,0-0.007,0c-2.675,0-5.374-1.62-7.594-4.324l-0.109-0.323
	c-7.915-9.637-19.134-15.353-30.783-15.353c-0.005,0-0.01,0-0.015,0c-11.656,0-22.88,5.669-30.793,15.319
	c-5.253,6.406-4.318,15.921,2.087,21.174c6.407,5.253,15.858,4.224,21.11-2.182c2.229-2.717,4.93-4.31,7.608-4.31
	c0.001,0,0.001,0,0.003,0c2.674,0,5.374,1.62,7.594,4.324l0.109,0.323c7.916,9.638,19.134,15.353,30.783,15.353
	c0.011,0,0.021,0,0.032,0c11.664,0,22.891-5.824,30.817-15.509c2.229-2.723,4.932-4.491,7.612-4.491c0.003,0,0.004,0,0.007,0
	c2.675,0,5.374,1.63,7.606,4.349l0.08,0.293c7.916,9.638,19.134,15.358,30.783,15.358c0.01,0,0.021,0,0.032,0
	c11.626,0,22.817-5.651,30.723-15.257c0.032-0.038,0.063-0.278,0.095-0.316c2.229-2.723,4.932-4.427,7.612-4.427
	c0.003,0,0.004,0,0.007,0c0.249,0,0.498,0.164,0.747,0.189c2.334,0.326,4.639,1.831,6.577,4.193l0.109,0.295
	c7.917,9.637,19.135,15.323,30.783,15.323c0.011,0,0.023,0,0.034,0c11.623,0,22.812-5.649,30.717-15.251
	c0.034-0.04,0.066-0.281,0.1-0.322c2.229-2.723,4.932-4.427,7.612-4.427c0.002,0,0.004,0,0.007,0c2.675,0,5.373,1.63,7.553,4.283
	l0.085,0.173c5.227,6.428,14.674,7.435,21.102,2.21c6.428-5.227,7.401-14.657,2.176-21.084l-0.133-0.291
	C287.657,130.272,276.439,124.618,264.789,124.618z M5.49,85.431c6.407,5.252,15.856,4.563,21.11-1.843
	c2.228-2.717,4.929-3.969,7.606-3.969c0.001,0,0.002,0,0.003,0c2.675,0,5.374,1.248,7.595,3.952l0.109,0.009
	c7.916,9.638,19.134,15.039,30.783,15.039c0.011,0,0.021,0,0.032,0c11.664-0.01,22.891-5.324,30.817-15.009
	c2.229-2.723,4.932-3.991,7.612-3.991c0.003,0,0.004,0,0.007,0c2.675,0,5.374,1.257,7.606,3.976l0.08-0.021
	c7.916,9.638,19.134,15.046,30.783,15.045c0.01,0,0.021,0,0.032,0c11.626-0.01,22.817-5.523,30.723-15.13
	c0.032-0.038,0.063,0.159,0.095,0.121c2.229-2.723,4.932-3.991,7.612-3.991c0.003,0,0.004,0,0.007,0
	c0.251,0,0.502-0.209,0.753-0.183c2.332,0.328,4.634,1.647,6.571,4.006l0.109,0.074c7.917,9.637,19.135,15.103,30.783,15.102
	c0.011,0,0.023,0,0.034,0c11.623-0.011,22.812-5.521,30.717-15.124c0.034-0.04,0.066,0.155,0.1,0.115
	c2.229-2.723,4.932-3.991,7.612-3.991c0.002,0,0.004,0,0.007,0c2.675,0,5.373,1.257,7.553,3.911l0.085-0.013
	c5.227,6.428,14.674,7.342,21.102,2.117c6.428-5.227,7.401-14.703,2.176-21.131l-0.133,0.058
	c-7.916-9.638-19.134-14.942-30.783-14.942c-0.01,0-0.021,0-0.032,0c-11.624,0-22.815,5.288-30.722,14.892
	c-0.032,0.039-0.065-0.039-0.098,0.001c-2.228,2.722-4.931,4.105-7.61,4.107c-0.002,0-0.005,0-0.007,0
	c-2.218,0-4.448-1.04-6.413-2.932c-0.274-0.415-0.569-0.82-0.889-1.214l-0.133-0.162c-7.43-9.046-17.77-14.222-28.644-14.853
	c-0.8-0.052-1.602,0.161-2.407,0.161c-0.005,0-0.011,0-0.017,0c-11.655,0-22.879,5.297-30.792,14.948
	c-0.367,0.447-0.696,0.789-1.002,1.264c-1.959,1.878-4.177,2.787-6.383,2.789c-0.003,0-0.005,0-0.007,0
	c-2.675,0-5.374-1.492-7.606-4.211l-0.08,0.138c-7.916-9.638-19.134-14.927-30.783-14.927c-0.011,0-0.021,0-0.032,0
	c-11.664,0-22.891,5.324-30.817,15.009c-2.229,2.723-4.932,3.989-7.612,3.991c-0.003,0-0.004,0-0.007,0
	c-2.675,0-5.374-1.492-7.594-4.196l-0.109,0.114c-7.915-9.637-19.134-14.917-30.783-14.917c-0.005,0-0.011,0-0.016,0
	c-11.656,0-22.88,5.297-30.793,14.948C-1.851,70.972-0.917,80.178,5.49,85.431z"/>
<g>
</g>
<g>
</g>
<g>
</g>
<g>
</g>
<g>
</g>
<g>
</g>
<g>
</g>
<g>
</g>
<g>
</g>
<g>
</g>
<g>
</g>
<g>
</g>
<g>
</g>
<g>
</g>
<g>
</g>
</svg>
