<?xml version="1.0" encoding="iso-8859-1"?>
<!-- Generator: Adobe Illustrator 16.0.0, SVG Export Plug-In . SVG Version: 6.00 Build 0)  -->
<!DOCTYPE svg PUBLIC "-//W3C//DTD SVG 1.1//EN" "http://www.w3.org/Graphics/SVG/1.1/DTD/svg11.dtd">
<svg version="1.1" id="Capa_1" xmlns="http://www.w3.org/2000/svg" xmlns:xlink="http://www.w3.org/1999/xlink" x="0px" y="0px"
	 width="551.601px" height="551.601px" viewBox="0 0 551.601 551.601" style="enable-background:new 0 0 551.601 551.601;"
	 xml:space="preserve">
<g>
	<path d="M106.3,219.1h6.1v66.7h-6.1c-9.2,0-16.5-7.3-16.5-16.5v-33.7C89.8,226.4,97.1,219.1,106.3,219.1L106.3,219.1z M433.1,217.3
		v71c0,19.601-15.899,35.5-35.5,35.5H378v152.4H388.4c7.301,0,12.2,5.5,12.2,12.9v15.3c0,2.399-0.6,4.3-1.2,6.1H411
		c7.3,0,12.2,5.5,12.2,12.9v15.3c0,7.3-5.5,12.9-12.2,12.9H140.5c-7.3,0-12.9-5.5-12.9-12.9v-15.3c0-7.3,5.5-12.9,12.9-12.9h11.6
		c-1.2-1.8-1.2-3.7-1.2-6.1v-15.3c0-7.301,6.1-12.9,12.9-12.9h9.8V323.7H154c-19.6,0-35.5-15.9-35.5-35.5v-71
		c0-19.6,15.9-35.5,35.5-35.5h19.6v-34.9h-9.8c-7.3,0-12.9-5.5-12.9-12.9v-15.2c0-7.3,5.5-12.2,12.9-12.2h9.8v-4.3
		C173.6,45.9,219.5,0,275.8,0l0,0c56.3,0,102.8,45.9,102.8,102.2v4.3h9.8c7.301,0,12.9,5.5,12.9,12.2V134c0,7.3-6.1,12.9-12.9,12.9
		h-9.8v34.9h19.601C417.201,181.8,433.1,197.7,433.1,217.3z M360.9,323.101H191.3V335.3h169.5v-12.199H360.9z M275.8,305.4
		c29.4,0,52.6-23.9,52.6-52.6c0-29.4-23.899-52.6-52.6-52.6c-29.4,0-52.6,23.9-52.6,52.6C223.2,281.5,246.4,305.4,275.8,305.4z
		 M360.9,168.9H191.3v12.2h169.5v-12.2H360.9z M445.3,219.1h-6.1v66.7h6.1c9.2,0,16.5-7.3,16.5-16.5v-33.7
		C461.8,226.4,454.5,219.1,445.3,219.1z"/>
</g>
<g>
</g>
<g>
</g>
<g>
</g>
<g>
</g>
<g>
</g>
<g>
</g>
<g>
</g>
<g>
</g>
<g>
</g>
<g>
</g>
<g>
</g>
<g>
</g>
<g>
</g>
<g>
</g>
<g>
</g>
</svg>
