<?xml version="1.0" encoding="iso-8859-1"?>
<!-- Generator: Adobe Illustrator 19.0.0, SVG Export Plug-In . SVG Version: 6.00 Build 0)  -->
<svg version="1.1" id="Layer_1" xmlns="http://www.w3.org/2000/svg" xmlns:xlink="http://www.w3.org/1999/xlink" x="0px" y="0px"
	 viewBox="0 0 512 512" style="enable-background:new 0 0 512 512;" xml:space="preserve">
<g>
	<g>
		<path d="M96,240H32c-5.891,0-10.656,4.773-10.656,10.664S26.109,261.328,32,261.328h64c5.891,0,10.672-4.773,10.672-10.664
			S101.891,240,96,240z"/>
	</g>
</g>
<g>
	<g>
		<path d="M480,240c0,0-0.016,0-0.031,0H416c-5.891,0-10.656,4.773-10.656,10.664s4.766,10.664,10.656,10.664h64
			c5.891,0,10.672-4.773,10.672-10.664S485.891,240,480,240z"/>
	</g>
</g>
<g>
	<g>
		<path d="M421.938,84.734c-4.172-4.172-10.922-4.172-15.094,0c0,0,0,0.008-0.016,0.016l-45.234,45.234
			c-4.156,4.172-4.156,10.922,0,15.086c4.172,4.164,10.922,4.164,15.094,0v-0.008l45.25-45.242v-0.008
			C426.11,95.648,426.11,88.898,421.938,84.734z"/>
	</g>
</g>
<g>
	<g>
		<path d="M256,16c-5.891,0-10.656,4.773-10.656,10.664c0,0.016,0,0.023,0,0.031v63.969c0,5.898,4.765,10.672,10.656,10.672
			s10.672-4.773,10.672-10.672v-64C266.672,20.773,261.891,16,256,16z"/>
	</g>
</g>
<g>
	<g>
		<path d="M150.406,129.984l-45.25-45.25c-4.172-4.164-10.922-4.164-15.094,0c-4.156,4.164-4.156,10.922,0,15.086
			c0.016,0.008,0.016,0.008,0.032,0.016l45.234,45.234c4.156,4.164,10.922,4.164,15.078,0
			C154.578,140.906,154.578,134.156,150.406,129.984z"/>
	</g>
</g>
<g>
	<g>
		<path d="M494.344,369.172l-28.5,19c-4.891,3.25-11.328,4.875-17.75,4.875c-6.438,0-12.875-1.625-17.75-4.875l-28.5-19
			c-4.891-3.25-11.328-4.891-17.75-4.891c-6.438,0-12.875,1.641-17.75,4.891l-28.5,19c-4.891,3.25-11.328,4.875-17.75,4.875
			c-6.438,0-12.875-1.625-17.75-4.875l-28.5-19c-4.891-3.25-11.328-4.891-17.75-4.891c-6.438,0-12.875,1.641-17.75,4.891l-28.5,19
			c-4.891,3.25-11.328,4.875-17.75,4.875c-6.438,0-12.875-1.625-17.75-4.875l-28.5-19c-4.891-3.25-11.328-4.891-17.75-4.891
			c-6.438,0-12.875,1.641-17.75,4.891l-28.5,19c-4.891,3.25-11.328,4.875-17.75,4.875c-6.438,0-12.875-1.625-17.75-4.875l-28.5-19
			c-4.891-3.25-11.312-4.891-17.75-4.891c-0.031,0-0.062,0.016-0.094,0.016v21.312c0.031,0,0.062,0,0.094,0
			c3.141,0,5.234,0.859,5.906,1.312l28.5,19c8.188,5.453,18.703,8.469,29.594,8.469s21.391-3.016,29.578-8.469l28.5-19
			c0.672-0.453,2.781-1.312,5.922-1.312c3.141,0,5.234,0.859,5.906,1.312l28.5,19c8.188,5.453,18.703,8.469,29.594,8.469
			s21.391-3.016,29.578-8.469l28.5-19c0.672-0.453,2.781-1.312,5.922-1.312c3.125,0,5.234,0.859,5.906,1.312l28.5,19
			c8.188,5.453,18.703,8.469,29.594,8.469s21.391-3.016,29.578-8.469l28.5-19c0.672-0.453,2.781-1.312,5.922-1.312
			c3.125,0,5.234,0.859,5.906,1.312l28.5,19c8.188,5.453,18.703,8.469,29.594,8.469c10.875,0,21.391-3.016,29.578-8.469l28.5-19
			c0.672-0.453,2.734-1.281,5.828-1.312v-21.312C505.594,364.297,499.203,365.922,494.344,369.172z"/>
	</g>
</g>
<g>
	<g>
		<path d="M494.344,287.547l-28.5,19c-4.891,3.25-11.328,4.875-17.75,4.875c-6.438,0-12.875-1.625-17.75-4.875l-28.5-19
			c-4.891-3.25-11.328-4.875-17.75-4.875c-1.328,0-2.656,0.062-3.969,0.203c2.672-10.297,4.094-21.078,4.094-32.211
			c0-70.812-57.406-128.219-128.219-128.219s-128.219,57.406-128.219,128.219c0,11.117,1.422,21.914,4.094,32.195
			c-1.25-0.125-2.516-0.188-3.781-0.188c-6.438,0-12.875,1.625-17.75,4.875l-28.5,19c-4.891,3.25-11.328,4.875-17.75,4.875
			c-6.438,0-12.875-1.625-17.75-4.875l-28.5-19c-4.891-3.25-11.312-4.875-17.75-4.875c-0.031,0-0.062,0-0.094,0V304
			c0.031,0,0.062,0,0.094,0c3.141,0,5.234,0.859,5.906,1.297l28.5,19c8.188,5.469,18.703,8.469,29.594,8.469s21.391-3,29.578-8.469
			l28.5-19c0.672-0.438,2.781-1.297,5.922-1.297c3.141,0,5.234,0.859,5.906,1.297l28.5,19c8.188,5.469,18.703,8.469,29.594,8.469
			s21.391-3,29.578-8.469l28.5-19c0.672-0.438,2.781-1.297,5.922-1.297c3.125,0,5.234,0.859,5.906,1.297l28.5,19
			c8.188,5.469,18.703,8.469,29.594,8.469s21.391-3,29.578-8.469l28.5-19c0.672-0.438,2.781-1.297,5.922-1.297
			c3.125,0,5.234,0.859,5.906,1.297l28.5,19c8.188,5.469,18.703,8.469,29.594,8.469c10.875,0,21.391-3,29.578-8.469l28.5-19
			c0.672-0.438,2.734-1.281,5.828-1.297v-21.328C505.594,282.672,499.203,284.297,494.344,287.547z M352.468,296.797l-14.625,9.75
			c-4.89,3.25-11.327,4.875-17.749,4.875c-6.438,0-12.875-1.625-17.75-4.875l-28.5-19c-4.891-3.25-11.328-4.875-17.75-4.875
			c-6.438,0-12.875,1.625-17.75,4.875l-28.5,19c-4.891,3.25-11.328,4.875-17.75,4.875c-6.438,0-12.875-1.625-17.75-4.875
			l-14.875-9.906c-6.766-14.188-10.359-29.812-10.359-45.977c0-28.547,11.125-55.391,31.312-75.578
			c20.187-20.187,47.031-31.305,75.578-31.305c28.562,0,55.391,11.117,75.578,31.305s31.312,47.031,31.312,75.578
			C362.89,266.891,359.281,282.578,352.468,296.797z"/>
	</g>
</g>
<g>
	<g>
		<path d="M494.328,450.781l-28.484,19c-4.891,3.266-11.328,4.891-17.75,4.891c-6.438,0-12.875-1.625-17.766-4.891l-28.484-19
			c-4.891-3.25-11.328-4.875-17.75-4.875c-6.438,0-12.875,1.625-17.766,4.875l-28.484,19c-4.891,3.266-11.328,4.891-17.75,4.891
			c-6.438,0-12.875-1.625-17.75-4.891l-28.5-19c-4.891-3.25-11.328-4.875-17.75-4.875c-6.438,0-12.875,1.625-17.75,4.875l-28.5,19
			c-4.891,3.266-11.328,4.891-17.75,4.891c-6.438,0-12.875-1.625-17.75-4.891l-28.5-19c-4.891-3.25-11.328-4.875-17.75-4.875
			c-6.438,0-12.875,1.625-17.75,4.875l-28.5,19c-4.891,3.266-11.328,4.891-17.75,4.891c-6.438,0-12.875-1.625-17.75-4.891l-28.5-19
			c-4.891-3.25-11.328-4.875-17.75-4.875c-0.031,0-0.062,0-0.094,0v21.328c0.031,0,0.062,0,0.094,0c3.125,0,5.234,0.844,5.906,1.297
			l28.5,19C42.688,492.984,53.203,496,64.094,496s21.391-3.016,29.578-8.469l28.5-19c0.672-0.453,2.781-1.297,5.922-1.297
			c3.125,0,5.234,0.844,5.906,1.297l28.5,19c8.188,5.453,18.703,8.469,29.594,8.469c10.875,0,21.391-3.016,29.578-8.469l28.5-19
			c0.672-0.453,2.781-1.297,5.922-1.297c3.125,0,5.234,0.844,5.906,1.297l28.5,19c8.188,5.453,18.703,8.469,29.594,8.469
			c10.875,0,21.391-3.016,29.578-8.469l28.5-19c0.672-0.453,2.781-1.297,5.922-1.297c3.125,0,5.234,0.844,5.906,1.297l28.5,19
			c8.188,5.453,18.703,8.469,29.594,8.469c10.875,0,21.391-3.016,29.578-8.469l28.5-19c0.672-0.453,2.734-1.266,5.828-1.297v-21.328
			C505.594,445.922,499.188,447.547,494.328,450.781z"/>
	</g>
</g>
<g>
</g>
<g>
</g>
<g>
</g>
<g>
</g>
<g>
</g>
<g>
</g>
<g>
</g>
<g>
</g>
<g>
</g>
<g>
</g>
<g>
</g>
<g>
</g>
<g>
</g>
<g>
</g>
<g>
</g>
</svg>
