<?xml version="1.0" encoding="iso-8859-1"?>
<!-- Generator: Adobe Illustrator 16.0.0, SVG Export Plug-In . SVG Version: 6.00 Build 0)  -->
<!DOCTYPE svg PUBLIC "-//W3C//DTD SVG 1.1//EN" "http://www.w3.org/Graphics/SVG/1.1/DTD/svg11.dtd">
<svg version="1.1" id="Capa_1" xmlns="http://www.w3.org/2000/svg" xmlns:xlink="http://www.w3.org/1999/xlink" x="0px" y="0px"
	 width="550.7px" height="550.7px" viewBox="0 0 550.7 550.7" style="enable-background:new 0 0 550.7 550.7;" xml:space="preserve"
	>
<g>
	<path d="M229.75,200.6c0-10.4,8.6-19,19-19s19,8.6,19,19c0,10.4-8.6,19-19,19S229.75,211,229.75,200.6z M503.95,320.6
		c0,12.9-11,23.9-23.898,23.9c-0.602,0-1.201,0-1.801,0c-25.1,40.399-60.6,74.1-103.4,96.7v67.3c0,23.3-19,42.2-42.199,42.2h-169.6
		c-23.3,0-42.2-19-42.2-42.2V356.7c-45.3-36.7-74.1-92.4-74.1-155.4c0-111.4,90.6-201.3,201.3-201.3l0,0
		C359.45,0,449.35,90.6,449.35,201.3c0,63-28.799,118.7-74.1,155.4v61.8c34.9-20.2,64.9-49,86.301-82.601
		c-3.102-4.3-5.5-9.199-5.5-14.699c0-12.9,10.398-23.301,23.299-23.301C493.551,296.7,503.95,307.1,503.95,320.6z M185.051,200.6
		c0,34.9,28.2,63,63.6,63c34.901,0,63-28.2,63-63c0-34.9-28.201-63.6-63-63.6C213.25,137,185.051,165.8,185.051,200.6z
		 M335.051,487.1H161.25v22h173.801V487.1z M335.051,434.399H161.25v22h173.801V434.399z M335.051,382.399H161.25v22h173.801
		V382.399z"/>
</g>
<g>
</g>
<g>
</g>
<g>
</g>
<g>
</g>
<g>
</g>
<g>
</g>
<g>
</g>
<g>
</g>
<g>
</g>
<g>
</g>
<g>
</g>
<g>
</g>
<g>
</g>
<g>
</g>
<g>
</g>
</svg>
