<?xml version="1.0" encoding="iso-8859-1"?>
<!-- Generator: Adobe Illustrator 16.0.0, SVG Export Plug-In . SVG Version: 6.00 Build 0)  -->
<!DOCTYPE svg PUBLIC "-//W3C//DTD SVG 1.1//EN" "http://www.w3.org/Graphics/SVG/1.1/DTD/svg11.dtd">
<svg version="1.1" id="Capa_1" xmlns="http://www.w3.org/2000/svg" xmlns:xlink="http://www.w3.org/1999/xlink" x="0px" y="0px"
	 width="550.199px" height="550.199px" viewBox="0 0 550.199 550.199" style="enable-background:new 0 0 550.199 550.199;"
	 xml:space="preserve">
<g>
	<path d="M261.9,497.257c3.7,15.3-6.1,28.2-22,28.2H175c-15.9,0-31.8-12.9-35.5-28.2l-28.8-123h122.4L261.9,497.257z M485.9,185.757
		v129.1c35.5,0,64.299-28.8,64.299-64.3C550.199,214.457,521.4,185.757,485.9,185.757z M458.4,63.957v186.7v186.7
		c0,22-17.701,39.2-39.201,39.2c-22,0-39.199-17.7-39.199-39.2c0-58.1-78.9-91.8-150.6-91.8H94.9c-52.6,0-94.9-42.2-94.9-94.9
		c0-52.7,42.2-94.9,94.9-94.9h134.6c71.6,0,150.6-34.3,150.6-91.8c0-22,17.701-39.2,39.201-39.2
		C440.6,24.157,458.4,41.856,458.4,63.957z M135.3,172.856h-19.6v154.8h19.6V172.856z"/>
</g>
<g>
</g>
<g>
</g>
<g>
</g>
<g>
</g>
<g>
</g>
<g>
</g>
<g>
</g>
<g>
</g>
<g>
</g>
<g>
</g>
<g>
</g>
<g>
</g>
<g>
</g>
<g>
</g>
<g>
</g>
</svg>
