<?xml version="1.0" encoding="iso-8859-1"?>
<!-- Generator: Adobe Illustrator 16.0.0, SVG Export Plug-In . SVG Version: 6.00 Build 0)  -->
<!DOCTYPE svg PUBLIC "-//W3C//DTD SVG 1.1//EN" "http://www.w3.org/Graphics/SVG/1.1/DTD/svg11.dtd">
<svg version="1.1" id="Capa_1" xmlns="http://www.w3.org/2000/svg" xmlns:xlink="http://www.w3.org/1999/xlink" x="0px" y="0px"
	 width="551.514px" height="551.514px" viewBox="0 0 551.514 551.514" style="enable-background:new 0 0 551.514 551.514;"
	 xml:space="preserve">
<g>
	<path d="M467.157,315.313c19.6-0.6,34.899-16.5,34.899-36.1c0-19.6-16-35.5-35.5-35.5l0,0l9.8-91.8c0-1.2,0-1.8,0-3.1
		c0-33-10.399-61.2-25.699-82.6l7.3-12.2c9.8-17.1,3.7-39.2-13.5-49c-6.101-3.7-13.5-4.9-20.2-4.9c-11.6,0.6-22,7.3-28.2,17.7
		l-4.899,9.2c-4.9-0.6-9.801-1.2-14.7-1.2h-98.5h-3.2h-98.5c-4.9,0-9.8,0.6-14.7,1.2l-4.9-9.2c-6.1-10.4-17.1-17.1-28.8-17.7
		c-6.7-0.6-14.1,1.2-20.2,4.9c-17.1,9.8-23.3,31.8-13.5,49l7.3,12.2c-15.9,21.4-25.7,49.6-25.7,82.6c0,1.2,0,1.8,0,3.1l9.8,91.8
		h-0.6c-19.6,0-35.5,15.9-35.5,35.5c0,19.6,15.3,35.5,34.9,36.1l-15.9,15.9c-17.1,17.1-11,52,14.1,77.1
		c25.1,25.101,60,31.2,77.1,14.101l23.9-23.9v89.4c0,34.899,41,63.6,91.8,63.6s91.8-28.8,91.8-63.6v-89.4l24.5,24.5
		c17.1,17.101,52,11,77.1-14.1c25.1-25.101,31.2-60,14.1-77.101L467.157,315.313z M157.357,410.114
		c-14.7,14.699-43.5,9.199-64.9-12.2c-21.4-21.4-26.3-50.2-12.2-64.9c5.5-5.5,12.9-8,21.4-8c14.1,0,30,6.7,43.5,20.2
		C166.557,366.714,171.557,395.414,157.357,410.114z M275.557,530.714c-42.8,0-77.1-23.9-77.1-53.2s34.3-53.3,77.1-53.3
		s77.101,23.9,77.101,53.2S317.657,530.714,275.557,530.714z M203.257,255.314c6.1-15.9,15.9-34.3,27.5-50.2
		c10.4-14.7,20.8-25.1,26.9-30h16.5h3.1h16.5c6.1,5.5,16.5,15.9,26.9,30c11,15.9,22,34.3,27.5,50.2c-17-12.2-43.301-19.6-72.7-19.6
		C246.657,236.314,220.357,243.714,203.257,255.314z M304.257,145.114h-27h-3.1h-26.9c-19.6,11.6-51.4,51.4-67.9,90.6
		c-24.5,3.1-45.9,8-63,15.3l-10.4-101.6c0-58.8,39.8-93,70.4-93h98.5h3.1h98.5c30.6,0,70.399,34.3,70.399,93l-10.399,101.6
		c-16.5-7.3-38.601-12.2-63-15.3C355.657,196.514,323.757,156.814,304.257,145.114z M458.557,397.914
		c-21.399,21.399-50.2,26.3-64.899,12.2c-14.7-14.7-9.2-43.5,11.6-64.9c13.5-13.5,29.4-20.2,43.5-20.2c8.6,0,15.9,3.101,21.4,8
		C484.757,348.313,479.856,377.114,458.557,397.914z"/>
</g>
<g>
</g>
<g>
</g>
<g>
</g>
<g>
</g>
<g>
</g>
<g>
</g>
<g>
</g>
<g>
</g>
<g>
</g>
<g>
</g>
<g>
</g>
<g>
</g>
<g>
</g>
<g>
</g>
<g>
</g>
</svg>
