<?xml version="1.0" encoding="iso-8859-1"?>
<!-- Generator: Adobe Illustrator 16.0.0, SVG Export Plug-In . SVG Version: 6.00 Build 0)  -->
<!DOCTYPE svg PUBLIC "-//W3C//DTD SVG 1.1//EN" "http://www.w3.org/Graphics/SVG/1.1/DTD/svg11.dtd">
<svg version="1.1" id="Capa_1" xmlns="http://www.w3.org/2000/svg" xmlns:xlink="http://www.w3.org/1999/xlink" x="0px" y="0px"
	 width="571.975px" height="571.974px" viewBox="0 0 571.975 571.974" style="enable-background:new 0 0 571.975 571.974;"
	 xml:space="preserve">
<g>
	<path d="M332.074,166.15l52,52l-340.3,340.3c-3.699,3.7-9.8,3.7-13.5,0l-27.5-27.5c-3.699-3.7-3.699-9.8,0-13.5l131-131
		c55.101-50.8,47.7-69.8,78.301-100.4L332.074,166.15L332.074,166.15z M536.475,160.65l-93,93l15.3,31.8
		c45.3-25.7,85.7-59.4,113.2-113.2L536.475,160.65z M250.675,10.75L250.675,10.75l-4.3,19c28.8,27.5,98.5,47.1,60,88.1
		c4.899,6.1,130.399,130.4,130.399,130.4l91.8-91.8C452.574,130.05,351.574,24.15,250.675,10.75z"/>
</g>
<g>
</g>
<g>
</g>
<g>
</g>
<g>
</g>
<g>
</g>
<g>
</g>
<g>
</g>
<g>
</g>
<g>
</g>
<g>
</g>
<g>
</g>
<g>
</g>
<g>
</g>
<g>
</g>
<g>
</g>
</svg>
