<?xml version="1.0" encoding="iso-8859-1"?>
<!-- Generator: Adobe Illustrator 19.1.0, SVG Export Plug-In . SVG Version: 6.00 Build 0)  -->
<svg version="1.1" id="Capa_1" xmlns="http://www.w3.org/2000/svg" xmlns:xlink="http://www.w3.org/1999/xlink" x="0px" y="0px"
	 viewBox="0 0 440.558 440.558" style="enable-background:new 0 0 440.558 440.558;" xml:space="preserve">
<g>
	<path style="fill:#669933;" d="M369.866,234.602c5.042-7.958,10.613-14.132,15.625-18.747
		c-14.515,3.607-27.264,12.852-38.051,27.632c-11.443,15.681-16.266,31.982-16.312,32.144c-0.685,2.355-2.977,3.863-5.41,3.569
		c-2.433-0.298-4.292-2.314-4.389-4.764c-1.838-46.587,9.868-84.52,20.012-108.137c4.753-11.067,9.574-20.064,13.559-26.768
		c-45.506,26.83-66.473,114.643-66.7,115.617c-0.573,2.46-2.897,4.105-5.401,3.837c-2.511-0.269-4.428-2.368-4.467-4.894
		c-0.564-35.909-7.321-60.368-13.863-75.776c1.09,43.273-15.311,106.826-16.176,110.142c-0.627,2.404-2.92,3.985-5.392,3.707
		c-2.469-0.274-4.361-2.32-4.443-4.803c-1.446-43.563-7.824-70.03-12.973-84.64c-6.089,32.799-22.834,66.602-23.672,68.277
		c-0.945,1.893-2.982,2.987-5.081,2.728c-2.102-0.258-3.811-1.81-4.272-3.876c-7.593-34.098-4.099-96.324,16.462-129.857
		c-3.54,1.527-7.619,3.918-11.866,7.654c-11.769,10.354-26.911,33.301-32.218,83.824c-0.262,2.49-2.325,4.403-4.828,4.476
		c-2.492,0.065-4.674-1.719-5.079-4.189c-14.427-88.089-46.942-113.248-65.701-120.38c36.967,47.139,46.959,158.623,49.24,194.225
		c0.165,2.588-1.675,4.873-4.239,5.263c-2.558,0.385-5-1.245-5.61-3.767c-10.206-42.137-29.31-72.206-55.248-86.957
		c-7.735-4.399-14.963-6.827-20.844-8.157c33.231,31.485,42.481,62.271,44.13,83.434c1.262,16.208-1.585,29.057-3.957,36.536
		h267.347C347.491,284.449,358.262,252.919,369.866,234.602z"/>
	<path style="fill:#663333;" d="M435.558,331.958h-65.163c-10.184-36.348-7.62-67.134,7.635-91.552
		c11.738-18.789,27.073-26.658,27.215-26.73c2.042-1.015,3.139-3.282,2.667-5.514c-0.472-2.23-2.393-3.859-4.672-3.96
		c-25.136-1.101-47.288,10.525-64.057,33.637c-2.922,4.027-5.435,8.061-7.575,11.884c4.524-71.585,40.077-117.529,40.473-118.031
		c1.332-1.684,1.441-4.03,0.27-5.83c-1.171-1.8-3.362-2.649-5.44-2.113c-42.862,11.067-68.467,67.392-80.383,101.943
		c-6.287-54.052-26.562-74.909-27.556-75.898c-1.682-1.679-4.312-1.94-6.294-0.627c-1.98,1.314-2.763,3.84-1.871,6.043
		c8.229,20.33,1.509,65.935-4.75,97.516c-5.757-51.809-18.768-70.109-19.423-71.001c-1.259-1.712-3.463-2.441-5.491-1.819
		c-2.031,0.621-3.448,2.458-3.533,4.581c-0.906,22.573-10.888,50.064-17.893,66.802c-3.631-37.56,3.037-93.151,24.909-115.452
		c1.363-1.39,1.796-3.443,1.109-5.265c-0.687-1.821-2.367-3.078-4.309-3.223c-0.599-0.044-14.831-0.939-30.172,12.1
		c-15.056,12.795-25.774,33.915-32.003,62.975c-10.039-41.707-25.785-71.541-46.96-88.882c-19.915-16.31-37.29-14.955-38.019-14.887
		c-2.038,0.184-3.759,1.59-4.343,3.551c-0.585,1.961,0.084,4.08,1.688,5.35c28.446,22.513,45.388,90.571,53.196,157.801
		c-14.021-29.961-32.042-45.68-46.5-53.902c-21.858-12.432-40.418-11.015-41.199-10.951c-2.03,0.174-3.753,1.561-4.354,3.508
		c-0.602,1.946,0.039,4.063,1.619,5.351c31.612,25.762,49.684,55.596,52.261,86.277c1.471,17.508-2.478,30.802-4.527,36.32H5
		c-2.762,0-5,2.238-5,5c0,2.762,2.238,5,5,5h430.558c2.762,0,5-2.238,5-5C440.558,334.196,438.319,331.958,435.558,331.958z
		 M92.7,331.958c2.372-7.479,5.219-20.328,3.957-36.536c-1.648-21.163-10.898-51.948-44.13-83.434
		c5.881,1.33,13.108,3.758,20.844,8.157c25.938,14.751,45.042,44.82,55.248,86.957c0.61,2.522,3.053,4.151,5.61,3.767
		c2.564-0.39,4.404-2.675,4.239-5.263c-2.281-35.602-12.273-147.086-49.24-194.225c18.759,7.132,51.274,32.291,65.701,120.38
		c0.405,2.471,2.587,4.255,5.079,4.189c2.503-0.072,4.566-1.985,4.828-4.476c5.307-50.523,20.449-73.471,32.218-83.824
		c4.247-3.736,8.326-6.127,11.866-7.654c-20.561,33.533-24.055,95.76-16.462,129.857c0.461,2.065,2.171,3.618,4.272,3.876
		c2.099,0.259,4.136-0.836,5.081-2.728c0.838-1.676,17.583-35.479,23.672-68.277c5.148,14.609,11.526,41.076,12.973,84.64
		c0.082,2.482,1.975,4.528,4.443,4.803c2.472,0.278,4.765-1.303,5.392-3.707c0.865-3.316,17.266-66.869,16.176-110.142
		c6.542,15.408,13.299,39.867,13.863,75.776c0.039,2.525,1.956,4.625,4.467,4.894c2.504,0.269,4.828-1.377,5.401-3.837
		c0.228-0.974,21.194-88.787,66.7-115.617c-3.984,6.703-8.806,15.7-13.559,26.768c-10.144,23.617-21.85,61.55-20.012,108.137
		c0.097,2.449,1.956,4.466,4.389,4.764c2.434,0.294,4.725-1.214,5.41-3.569c0.047-0.162,4.869-16.464,16.312-32.144
		c10.787-14.78,23.536-24.025,38.051-27.632c-5.012,4.615-10.583,10.789-15.625,18.747c-11.605,18.316-22.375,49.847-9.819,97.355
		H92.7z"/>
</g>
<g>
</g>
<g>
</g>
<g>
</g>
<g>
</g>
<g>
</g>
<g>
</g>
<g>
</g>
<g>
</g>
<g>
</g>
<g>
</g>
<g>
</g>
<g>
</g>
<g>
</g>
<g>
</g>
<g>
</g>
</svg>
