<?xml version="1.0" encoding="iso-8859-1"?>
<!-- Generator: Adobe Illustrator 19.0.0, SVG Export Plug-In . SVG Version: 6.00 Build 0)  -->
<svg version="1.1" id="Layer_1" xmlns="http://www.w3.org/2000/svg" xmlns:xlink="http://www.w3.org/1999/xlink" x="0px" y="0px"
	 viewBox="0 0 512 512" style="enable-background:new 0 0 512 512;" xml:space="preserve">
<g>
	<g>
		<path d="M511.544,14.843c-1.19-3.632-4.506-6.143-8.324-6.302c-16.591-0.689-76.842-0.938-155.663,24.886
			c-73.987,24.241-137.883,63.825-184.779,114.472c-83.341,90.009-85.33,172.504-79.098,213.669
			c0.757,5.004,5.429,8.446,10.43,7.687c5.004-0.757,8.445-5.427,7.687-10.43c-5.739-37.907-3.701-114.098,74.427-198.476
			C221.01,111.981,282.229,74.112,353.264,50.84c29.94-9.809,58.887-16.122,84.44-19.831c-11.023,5.118-22.753,11.232-34.759,18.519
			c-4.326,2.625-5.703,8.26-3.078,12.586c1.724,2.84,4.745,4.409,7.84,4.409c1.62,0,3.26-0.43,4.746-1.33
			c19.918-12.089,39.175-20.757,54.628-26.707c-9.724,10.899-19.041,23.854-26.482,39.431
			c-15.326,32.081-20.491,70.193-15.792,116.514c5.121,50.477,0.426,97.847-13.575,136.99
			c-15.944,44.569-43.442,78.306-81.729,100.274c-78.988,45.32-156.532,42.058-185.87,12.72
			c-14.513-14.513-25.712-32.153-33.284-52.427c-1.771-4.74-7.047-7.147-11.788-5.377c-4.74,1.77-7.147,7.048-5.377,11.788
			c7.171,19.199,17.286,36.319,30.112,51.043C72.138,483.171,9.575,485.315,8.915,485.333c-5.055,0.137-9.043,4.343-8.911,9.399
			c0.131,4.977,4.205,8.921,9.154,8.921c0.081,0,0.164-0.001,0.246-0.002c2.97-0.078,71.009-2.313,127.164-41.058
			c17.745,14.052,44.738,21.92,75.785,21.919c0.936,0,1.881-0.007,2.824-0.022c27.709-0.421,71.617-7.167,123.443-36.902
			c42.176-24.199,72.41-61.207,89.863-109.995c14.915-41.695,19.948-91.839,14.554-145.01
			c-9.509-93.734,25.873-136.01,65.526-167.732C511.545,22.461,512.734,18.474,511.544,14.843z"/>
	</g>
</g>
<g>
	<g>
		<path d="M381.747,74.724c-3.165-3.948-8.93-4.583-12.878-1.418c-26.529,21.264-47.986,45.86-64.005,73.318
			c-1.884-10.237-2.426-21.105-2.432-26.256c0-5.06-4.101-9.162-9.162-9.162c-5.061,0-9.162,4.102-9.162,9.162
			c0,3.417,0.272,31.581,8.757,49.52c-11.803,25.228-22.848,50.435-33.537,74.853c-4.125,9.424-8.221,18.776-12.306,28
			c-6.639-13.428-14.446-35.878-12.131-64.431c0.408-5.043-3.348-9.464-8.392-9.873c-5.028-0.398-9.464,3.348-9.873,8.392
			c-3.576,44.109,13.541,75.234,21.114,86.639c-12.763,28.127-25.571,54.527-39.028,77.354
			c-7.149-16.791-17.238-46.255-17.238-78.863c0-5.06-4.102-9.162-9.162-9.162s-9.162,4.102-9.162,9.162
			c0,45.263,17.119,83.896,23.902,97.43c-7.924,11.786-16.113,22.25-24.684,31.01c-3.536,3.618-3.474,9.418,0.143,12.957
			c1.782,1.744,4.096,2.614,6.407,2.614c2.377,0,4.754-0.92,6.549-2.753c24.453-24.989,45.495-61.729,65.734-103.798
			c14.261-0.164,49.555-3.554,83.097-30.295c3.957-3.154,4.607-8.919,1.452-12.875c-3.153-3.955-8.917-4.607-12.874-1.452
			c-23.317,18.589-47.925,24.122-62.771,25.692c8.677-18.818,17.276-38.454,26.007-58.397c4.62-10.552,9.31-21.254,14.088-32.031
			c0.237,0.002,0.457,0.009,0.704,0.009c11.877,0,35.451-2.887,61.264-22.014c4.065-3.012,4.919-8.75,1.908-12.815
			c-3.011-4.065-8.753-4.918-12.816-1.907c-17.025,12.615-32.45,16.761-42.674,17.984c4.185-9.26,8.446-18.545,12.814-27.815
			c15.402-32.682,38.593-61.582,68.926-85.896C384.277,84.438,384.912,78.672,381.747,74.724z"/>
	</g>
</g>
<g>
	<g>
		<path d="M307.929,381.111c-2.807-4.21-8.496-5.348-12.706-2.541c-21.159,14.105-52.217,19.847-74.546,22.179
			c-5.033,0.525-8.685,5.032-8.16,10.065c0.492,4.709,4.469,8.21,9.101,8.21c0.319,0,0.639-0.016,0.964-0.05
			c24.38-2.547,58.538-8.979,82.807-25.158C309.597,391.01,310.736,385.321,307.929,381.111z"/>
	</g>
</g>
<g>
</g>
<g>
</g>
<g>
</g>
<g>
</g>
<g>
</g>
<g>
</g>
<g>
</g>
<g>
</g>
<g>
</g>
<g>
</g>
<g>
</g>
<g>
</g>
<g>
</g>
<g>
</g>
<g>
</g>
</svg>
