<?xml version="1.0" encoding="iso-8859-1"?>
<!-- Generator: Adobe Illustrator 16.0.0, SVG Export Plug-In . SVG Version: 6.00 Build 0)  -->
<!DOCTYPE svg PUBLIC "-//W3C//DTD SVG 1.1//EN" "http://www.w3.org/Graphics/SVG/1.1/DTD/svg11.dtd">
<svg version="1.1" id="Capa_1" xmlns="http://www.w3.org/2000/svg" xmlns:xlink="http://www.w3.org/1999/xlink" x="0px" y="0px"
	 width="552.943px" height="552.943px" viewBox="0 0 552.943 552.943" style="enable-background:new 0 0 552.943 552.943;"
	 xml:space="preserve">
<g>
	<path d="M168.947,384.543h-6.1V38.144c0-19.6-15.9-36.1-35.5-36.1h-1.2l0,0c-1.2,0-2.4,0-3.7,0.6l0,0
		c-18.4,1.8-31.8,17.1-31.8,35.5v346.399h-6.1c-8,0-14.1,6.101-14.1,14.101s6.7,14.1,14.1,14.1h11.6l8,126.101
		c0.6,8,7.3,14.1,15.3,14.1h6.7h1.8h6.7c8,0,14.7-6.1,15.3-14.1l7.3-125.5h11.6c8,0,14.1-6.7,14.1-14.101
		C183.647,390.644,176.947,384.543,168.947,384.543z M149.947,431.043h-46.5l-0.6-11.6l0,0h47.7L149.947,431.043z M282.147,314.743
		c1.8,20.2-12.9,37.9-33.7,39.8c-20.2,1.801-37.9-12.899-39.8-33.699l-24.5-280.3c-1.8-20.2,12.9-37.9,33.7-39.8
		c20.2-1.8,37.9,12.9,39.8,33.7L282.147,314.743z M448.647,353.943c-20.2,1.8-37.9-12.9-39.8-33.7l-24.5-280.299
		c-1.801-20.2,13.5-37.9,33.699-39.8l0,0c20.2-1.8,37.9,13.5,39.801,33.7l24.5,280.3
		C484.147,334.943,469.447,352.144,448.647,353.943z M381.947,314.743c1.8,20.2-12.9,37.9-33.7,39.8
		c-20.2,1.801-37.899-12.899-39.8-33.699l-24.5-280.3c-1.8-20.2,12.9-37.9,33.7-39.8c20.2-1.8,37.899,12.9,39.8,33.7
		L381.947,314.743z"/>
</g>
<g>
</g>
<g>
</g>
<g>
</g>
<g>
</g>
<g>
</g>
<g>
</g>
<g>
</g>
<g>
</g>
<g>
</g>
<g>
</g>
<g>
</g>
<g>
</g>
<g>
</g>
<g>
</g>
<g>
</g>
</svg>
