<?xml version="1.0" encoding="iso-8859-1"?>
<!-- Generator: Adobe Illustrator 19.0.0, SVG Export Plug-In . SVG Version: 6.00 Build 0)  -->
<svg version="1.1" id="Layer_1" xmlns="http://www.w3.org/2000/svg" xmlns:xlink="http://www.w3.org/1999/xlink" x="0px" y="0px"
	 viewBox="0 0 511.997 511.997" style="enable-background:new 0 0 511.997 511.997;" xml:space="preserve">
<path style="fill:#82B236;" d="M233.514,463.243c-13.228-5.32-27.334-12.112-42.367-20.518c0,0-110.013-34.874-80.494-134.153
	S397.756,124.167,397.756,0C397.756,0,520.332,578.599,233.514,463.243z"/>
<path style="fill:#7EA532;" d="M233.514,463.243C437.854,432.37,397.756,0,397.756,0S520.332,578.599,233.514,463.243z"/>
<path style="fill:#658723;" d="M346.856,315.281c-12.43,3.645-25.377,5.595-38.319,5.974c9.001-14.512,17.219-29.503,24.364-45.017
	c2.082-4.518,4.102-9.065,6.042-13.647c19.131-9.419,35.919-24.476,46.496-43.065c2.99-5.254,5.493-10.785,7.498-16.488
	c-8.096,15.794-20.314,29.008-35.277,38.529c-4.212,2.68-8.609,5.044-13.151,7.111c9.486-24.952,17.221-50.513,22.955-76.59
	c1.436-6.528,2.707-13.089,3.873-19.672c0.569-3.213,1.108-6.431,1.598-9.657c0.246-1.614,0.48-3.23,0.701-4.847
	c0.121-0.893,1.058-3.939-0.106-4.415c-1.255-0.513-1.751,1.938-2.054,2.692c-0.645,1.607-1.284,3.217-1.918,4.828
	c-1.236,3.141-2.454,6.29-3.67,9.438c-2.425,6.278-4.878,12.544-7.337,18.809c-5.48,13.966-11.036,27.902-16.816,41.747
	c-4.083-8.42-7.289-17.195-9.764-26.216c-2.534-9.236-3.831-18.573-4.934-28.064c-0.423,8.982-0.693,17.865,0.132,26.839
	c0.819,8.916,2.336,17.73,4.607,26.391c1.241,4.732,2.712,9.396,4.454,13.966c-6.655,15.524-13.678,30.887-20.91,46.151
	c-2.058,4.344-4.137,8.678-6.24,13c-9.194-16.637-17.178-34.482-21.249-53.122c-1.168-5.35-2.021-10.772-2.463-16.232
	c-1.124,21.806,4.124,43.554,11.245,64.015c2.014,5.786,4.224,11.502,6.629,17.137c-9.569,19.065-19.749,37.755-31.682,55.463
	c-3.426,5.083-6.969,10.087-10.613,15.016c-10.495-11.673-19.608-24.647-27.135-38.42c-7.441-13.616-13.379-28.196-16.893-43.331
	c-2.08-8.959-3.29-17.96-3.869-27.136c-0.468,16.912,1.532,33.56,6.188,49.84c4.503,15.747,11.135,30.859,19.287,45.051
	c4.621,8.046,9.751,15.82,15.433,23.157c-5.949,7.589-12.174,14.959-18.678,22.073c-0.79,0.522-1.438,1.237-1.907,2.084
	c-7.868,8.473-16.143,16.574-24.826,24.21c-8.762,7.706-18.012,14.743-27.389,21.675c-19.939,14.737-40.037,29.261-60.339,43.492
	c-10.189,7.142-20.388,14.269-30.66,21.291c-0.667,0.456-2.609,1.297-1.725,2.358c0.825,0.994,2.798-0.781,3.556-1.231
	c2.629-1.558,5.254-3.121,7.877-4.689c5.312-3.177,10.619-6.367,15.899-9.598c21.259-13.007,42.255-26.453,63.127-40.07
	c9.947-6.49,19.899-12.953,29.385-20.111c9.205-6.945,18.046-14.372,26.495-22.22c2.073-1.926,4.121-3.877,6.146-5.852
	c5.532,0.768,11.107,1.228,16.685,1.481c5.302,0.24,10.744,0.496,16.036,0.014c4.287-0.391,8.578-0.731,12.866-1.098
	c4.714-0.404,9.43-0.704,14.096-1.509c10.745-1.855,21.34-4.707,31.492-8.697c10.883-4.276,21.207-9.962,30.561-16.982
	c-17.036,10.48-36.345,16.514-56.148,18.874c-4.019,0.479-8.104,0.952-12.157,0.908c-2.242-0.025-4.485-0.031-6.727-0.046
	c-3.104-0.021-6.207-0.043-9.31-0.063c-3.654-0.024-7.266-0.084-10.909-0.418c-5.654-0.519-11.289-1.281-16.874-2.305
	c7.655-8.218,15.196-16.619,22.095-25.49c4.729-6.082,9.508-12.146,13.945-18.448c5.038-7.153,10.051-14.318,14.815-21.658
	c26.647-2.277,53.615-11.204,75.173-27.262c5.932-4.418,11.394-9.458,16.371-14.926
	C379.618,302.019,363.847,310.298,346.856,315.281z"/>
<g>
</g>
<g>
</g>
<g>
</g>
<g>
</g>
<g>
</g>
<g>
</g>
<g>
</g>
<g>
</g>
<g>
</g>
<g>
</g>
<g>
</g>
<g>
</g>
<g>
</g>
<g>
</g>
<g>
</g>
</svg>
