<?xml version="1.0" encoding="iso-8859-1"?>
<!-- Generator: Adobe Illustrator 19.0.0, SVG Export Plug-In . SVG Version: 6.00 Build 0)  -->
<svg version="1.1" id="Layer_1" xmlns="http://www.w3.org/2000/svg" xmlns:xlink="http://www.w3.org/1999/xlink" x="0px" y="0px"
	 viewBox="0 0 511.999 511.999" style="enable-background:new 0 0 511.999 511.999;" xml:space="preserve">
<circle style="fill:#FFC850;" cx="256.003" cy="349.915" r="42.687"/>
<g>
	<path style="fill:#FFF082;" d="M400.885,409.422c-2.184,0-4.369-0.833-6.036-2.501c-3.335-3.335-3.335-8.737,0-12.072
		c64.989-64.993,76.036-168.113,26.271-245.199c-2.559-3.96-1.426-9.246,2.543-11.806c3.936-2.552,9.237-1.426,11.798,2.543
		c54.1,83.798,42.103,195.892-28.538,266.535C405.254,408.589,403.069,409.422,400.885,409.422z"/>
	<path style="fill:#FFF082;" d="M409.68,129.007c-2.359,0-4.71-0.971-6.394-2.88c-2.701-3.055-5.519-6.053-8.446-8.979
		c-3.326-3.335-3.326-8.741,0.009-12.072c3.335-3.326,8.745-3.335,12.08,0.009c3.16,3.168,6.211,6.416,9.146,9.729
		c3.127,3.531,2.793,8.925-0.734,12.052C413.715,128.302,411.698,129.007,409.68,129.007z"/>
</g>
<g>
	<path style="fill:#FFF7C0;" d="M80.934,439.603c-2.184,0-4.369-0.833-6.036-2.501c-99.864-99.859-99.864-262.345,0-362.204
		c3.335-3.335,8.737-3.335,12.072,0c3.335,3.335,3.335,8.737,0,12.072c-93.202,93.202-93.202,244.857,0,338.06
		c3.335,3.335,3.335,8.738,0,12.072C85.303,438.77,83.118,439.603,80.934,439.603z"/>
	<path style="fill:#FFF7C0;" d="M431.065,439.603c-2.185,0-4.369-0.833-6.036-2.501c-3.335-3.335-3.335-8.737,0-12.072
		c93.202-93.202,93.202-244.857,0-338.06c-3.335-3.335-3.335-8.737,0-12.072c3.335-3.335,8.738-3.335,12.072,0
		c99.864,99.859,99.864,262.345,0,362.204C435.434,438.77,433.25,439.603,431.065,439.603z"/>
</g>
<g>
	<path style="fill:#FFF082;" d="M83.718,375.518c-2.801,0-5.544-1.376-7.179-3.906c-54.1-83.797-42.103-195.892,28.539-266.534
		c3.335-3.335,8.737-3.335,12.072,0c3.335,3.335,3.335,8.737,0,12.072c-64.989,64.994-76.036,168.113-26.271,245.2
		c2.559,3.96,1.426,9.246-2.543,11.805C86.911,375.076,85.303,375.518,83.718,375.518z"/>
	<path style="fill:#FFF082;" d="M111.114,409.422c-2.184,0-4.378-0.833-6.044-2.506c-3.16-3.168-6.211-6.416-9.146-9.729
		c-3.127-3.531-2.793-8.925,0.734-12.052c3.527-3.123,8.938-2.806,12.056,0.737c2.701,3.055,5.519,6.053,8.446,8.979
		c3.326,3.335,3.326,8.741-0.009,12.072C115.483,408.589,113.299,409.422,111.114,409.422z"/>
</g>
<path style="fill:#FFDC64;" d="M349.91,281.165v-59.314c0-51.866-42.045-93.911-93.911-93.911l0,0
	c-51.866,0-93.911,42.045-93.911,93.911v59.314c0,5.816-1.98,11.458-5.612,16l-25.767,32.209c-1.793,2.241-2.77,5.026-2.77,7.897
	l0,0c0,6.981,5.659,12.641,12.641,12.641h230.84c6.981,0,12.641-5.659,12.641-12.641l0,0c0-2.871-0.976-5.655-2.77-7.897
	l-25.767-32.209C351.89,292.624,349.91,286.98,349.91,281.165z"/>
<path style="fill:#FFF082;" d="M315.761,251.197c-5.894,0-10.672-4.778-10.672-10.672V221.85c0-11.547-4.102-22.769-11.555-31.602
	c-3.802-4.507-3.235-11.238,1.275-15.041c4.502-3.798,11.238-3.223,15.032,1.275c10.696,12.681,16.591,28.789,16.591,45.368v18.675
	C326.432,246.42,321.656,251.197,315.761,251.197z M273.058,175.241c-1.008,0-2.043-0.146-3.051-0.45
	c-2.926-0.868-5.944-1.467-8.988-1.776c-5.861-0.601-10.13-5.836-9.53-11.702c0.601-5.869,5.937-10.163,11.697-9.534
	c4.369,0.446,8.712,1.305,12.906,2.559c5.653,1.68,8.871,7.625,7.186,13.273C281.895,172.243,277.652,175.241,273.058,175.241z"/>
<path style="fill:#FFC850;" d="M162.089,221.851v59.314c0,5.816-1.98,11.458-5.612,16l-25.767,32.209
	c-1.793,2.241-2.77,5.026-2.77,7.896c0,6.981,5.659,12.641,12.641,12.641h46.168c-4.189,0-7.584-5.659-7.584-12.641
	c0-2.87,0.586-5.655,1.662-7.896l15.46-32.209c2.179-4.541,3.368-10.184,3.368-16v-59.314c0-51.866,25.227-93.911,56.347-93.911
	C204.133,127.94,162.089,169.984,162.089,221.851z"/>
<g>
</g>
<g>
</g>
<g>
</g>
<g>
</g>
<g>
</g>
<g>
</g>
<g>
</g>
<g>
</g>
<g>
</g>
<g>
</g>
<g>
</g>
<g>
</g>
<g>
</g>
<g>
</g>
<g>
</g>
</svg>
