<?xml version="1.0" encoding="iso-8859-1"?>
<!-- Generator: Adobe Illustrator 19.0.0, SVG Export Plug-In . SVG Version: 6.00 Build 0)  -->
<svg version="1.1" id="Layer_1" xmlns="http://www.w3.org/2000/svg" xmlns:xlink="http://www.w3.org/1999/xlink" x="0px" y="0px"
	 viewBox="0 0 512.001 512.001" style="enable-background:new 0 0 512.001 512.001;" xml:space="preserve">
<path style="fill:#874D20;" d="M453.566,387.773v67.318c0,31.43-88.454,56.91-197.565,56.91S58.435,486.52,58.435,455.09v-67.317
	H453.566z"/>
<path style="fill:#BA9052;" d="M256.001,459.754c-109.113,0-197.565-32.227-197.565-71.982s88.452-71.982,197.565-71.982
	s197.565,32.227,197.565,71.982S365.112,459.754,256.001,459.754z"/>
<path style="fill:#B1CD3E;" d="M254.363,215.453c-6.217,0.657-12.528,1.004-18.918,1.004c-97.764,0-177.01-78.988-177.01-176.427
	c0-13.411,1.512-26.47,4.355-39.026C69.008,0.346,75.316,0,81.709,0c97.759,0,177.007,78.988,177.007,176.429
	C258.716,189.84,257.207,202.899,254.363,215.453L254.363,215.453z"/>
<path style="fill:#A3BC3B;" d="M254.363,215.453c2.844-12.554,4.353-25.613,4.353-39.026c0-22.182-4.118-43.402-11.616-62.957
	c-16.843,27.005-26.579,58.871-26.579,93.009c0,3.144,0.09,6.266,0.255,9.37c4.838,0.395,9.729,0.608,14.67,0.608
	C241.836,216.457,248.146,216.111,254.363,215.453z"/>
<path style="fill:#7E9822;" d="M443.161,1.003c2.844,12.555,4.352,25.613,4.352,39.026c0,97.44-79.248,176.428-177.006,176.428
	c-6.393,0-12.702-0.346-18.918-1.004c-2.844-12.554-4.355-25.613-4.355-39.026C247.233,78.987,326.478,0,424.243,0
	C430.634,0,436.945,0.346,443.161,1.003L443.161,1.003z"/>
<path style="fill:#677C0F;" d="M358.674,110.618L266.019,218.81v163.079c0,5.537-4.484,10.025-10.017,10.025
	c-5.533,0-10.017-4.489-10.017-10.025V218.985l-98.507-108.137c-3.728-4.092-3.434-10.433,0.653-14.162
	c4.088-3.731,10.425-3.438,14.151,0.654l93.487,102.626l87.692-102.397c3.598-4.204,9.923-4.691,14.125-1.087
	C361.788,100.084,362.275,106.413,358.674,110.618z"/>
<path style="fill:#874D20;" d="M215.579,398.181c5.13-17.419,21.283-30.143,40.422-30.143c19.137,0,35.292,12.724,40.422,30.143
	c0,0-11.482,8.636-40.422,8.636S215.579,398.181,215.579,398.181z"/>
<g>
</g>
<g>
</g>
<g>
</g>
<g>
</g>
<g>
</g>
<g>
</g>
<g>
</g>
<g>
</g>
<g>
</g>
<g>
</g>
<g>
</g>
<g>
</g>
<g>
</g>
<g>
</g>
<g>
</g>
</svg>
