<?xml version="1.0" encoding="iso-8859-1"?>
<!-- Generator: Adobe Illustrator 19.0.0, SVG Export Plug-In . SVG Version: 6.00 Build 0)  -->
<svg version="1.1" id="Layer_1" xmlns="http://www.w3.org/2000/svg" xmlns:xlink="http://www.w3.org/1999/xlink" x="0px" y="0px"
	 viewBox="0 0 512 512" style="enable-background:new 0 0 512 512;" xml:space="preserve">
<path style="fill:#707487;" d="M281.6,512c-18.825,0-34.133-15.312-34.133-34.133V8.533C247.467,3.821,251.283,0,256,0
	c4.717,0,8.533,3.821,8.533,8.533v469.333c0,9.412,7.659,17.067,17.067,17.067c9.408,0,17.067-7.654,17.067-17.067v-25.6
	c0-4.713,3.817-8.533,8.533-8.533s8.533,3.821,8.533,8.533v25.6C315.733,496.687,300.425,512,281.6,512z"/>
<path style="fill:#5B5D6E;" d="M247.467,213.333v34.459c2.838-0.135,5.664-0.325,8.533-0.325c2.869,0,5.695,0.19,8.533,0.325
	v-34.459H247.467z"/>
<path style="fill:#82DCFF;" d="M358.4,264.533C336.777,244.027,299.043,230.4,256,230.4s-80.777,13.627-102.4,34.133
	c-13.515-20.507-37.099-34.133-64-34.133s-50.485,13.627-64,34.133c0-127.246,103.153-230.4,230.4-230.4s230.4,103.153,230.4,230.4
	c-13.515-20.507-37.099-34.133-64-34.133S371.915,244.027,358.4,264.533z"/>
<path style="fill:#00AAF0;" d="M25.6,264.533c13.515-20.508,37.099-34.133,64-34.133s50.485,13.626,64,34.133
	C175.223,244.026,212.957,230.4,256,230.4V34.133C128.753,34.133,25.6,137.286,25.6,264.533z"/>
<path style="fill:#00C3FF;" d="M153.693,264.455C175.331,243.994,213.013,230.4,256,230.4s80.669,13.594,102.307,34.055
	C356.361,136.492,311.316,34.133,256,34.133S155.638,136.492,153.693,264.455z"/>
<path style="fill:#5B5D6E;" d="M247.467,426.667v51.2c0,18.821,15.309,34.133,34.133,34.133c18.825,0,34.133-15.312,34.133-34.133
	v-25.6c0-4.713-3.817-8.533-8.533-8.533s-8.533,3.821-8.533,8.533v25.6c0,9.412-7.659,17.067-17.067,17.067
	c-9.408,0-17.067-7.654-17.067-17.067v-51.2H247.467z"/>
<g>
</g>
<g>
</g>
<g>
</g>
<g>
</g>
<g>
</g>
<g>
</g>
<g>
</g>
<g>
</g>
<g>
</g>
<g>
</g>
<g>
</g>
<g>
</g>
<g>
</g>
<g>
</g>
<g>
</g>
</svg>
