<?xml version="1.0" encoding="iso-8859-1"?>
<!-- Generator: Adobe Illustrator 19.0.0, SVG Export Plug-In . SVG Version: 6.00 Build 0)  -->
<svg version="1.1" id="Layer_1" xmlns="http://www.w3.org/2000/svg" xmlns:xlink="http://www.w3.org/1999/xlink" x="0px" y="0px"
	 viewBox="0 0 362.928 362.928" style="enable-background:new 0 0 362.928 362.928;" xml:space="preserve">
<g>
	<polygon style="fill:#DD4545;" points="170.204,0.43 322.486,152.712 362.507,170.196 225.722,306.98 192.732,362.49 
		66.22,235.978 0.43,192.724 107.948,85.206 	"/>
	<path style="fill:#F75959;" d="M362.928,0l-0.421,170.196H220.798c-1.837-6.473-5.31-12.575-10.4-17.665l55.954-55.954L362.928,0z"
		/>
	<path style="fill:#F75959;" d="M0,0l170.204,0.43v141.692l0.008,0.008c-6.473,1.837-12.575,5.31-17.674,10.409L96.577,96.577L0,0z"
		/>
	<path style="fill:#FFDE55;" d="M210.398,152.531c5.091,5.091,8.563,11.192,10.4,17.665c3.953,13.814,0.48,29.304-10.409,40.193
		c-5.091,5.091-11.192,8.563-17.665,10.4c-13.822,3.944-29.304,0.48-40.185-10.4c-5.091-5.091-8.563-11.192-10.4-17.665
		c-3.953-13.814-0.48-29.304,10.4-40.185c5.099-5.099,11.201-8.571,17.674-10.409C184.026,138.178,199.517,141.65,210.398,152.531z"
		/>
	<path style="fill:#F75959;" d="M266.351,266.351l96.577,96.577l-170.196-0.438V220.798l-0.008-0.008
		c6.473-1.837,12.575-5.31,17.665-10.4L266.351,266.351z"/>
	<path style="fill:#F75959;" d="M0.43,192.724h141.709c1.837,6.473,5.31,12.575,10.4,17.665l-55.954,55.954L0.008,362.92
		L0.43,192.724z"/>
</g>
<g>
</g>
<g>
</g>
<g>
</g>
<g>
</g>
<g>
</g>
<g>
</g>
<g>
</g>
<g>
</g>
<g>
</g>
<g>
</g>
<g>
</g>
<g>
</g>
<g>
</g>
<g>
</g>
<g>
</g>
</svg>
