<?xml version="1.0" encoding="iso-8859-1"?>
<!-- Generator: Adobe Illustrator 19.1.0, SVG Export Plug-In . SVG Version: 6.00 Build 0)  -->
<svg version="1.1" id="Capa_1" xmlns="http://www.w3.org/2000/svg" xmlns:xlink="http://www.w3.org/1999/xlink" x="0px" y="0px"
	 viewBox="0 0 217.228 217.228" style="enable-background:new 0 0 217.228 217.228;" xml:space="preserve">
<g>
	<g id="group-4svg">
		<path id="path-1_94_" style="fill:#0CB04A;" d="M37.346,164.408h1.633c-3.064,0-5.549,1.424-5.549,3.178
			c0,1.755,2.485,3.178,5.549,3.178h0.74c3.065,0,5.549,1.422,5.549,3.178c0,1.754-2.484,3.177-5.549,3.177H5.549
			c-3.065,0-5.549,1.423-5.549,3.177c0,1.756,2.484,3.178,5.549,3.178h41.064h51.798c3.065,0,5.549-1.422,5.549-3.178
			c0-1.754-2.484-3.177-5.549-3.177h-9.483c-3.065,0,9.058-1.423,9.058-3.177c0-1.756-12.123-3.178-9.058-3.178h37.246
			c3.065,0,5.549-1.423,5.549-3.178c0-1.754-2.484-3.178-5.549-3.178h-2.78H37.346z"/>
		<path id="path-2_94_" style="fill:#0CB04A;" d="M130.086,184.324c-2.569,0-4.652-1.525-4.652-3.405
			c0-1.881,2.083-3.406,4.652-3.406h14.257c2.57,0,4.653,1.525,4.653,3.406c0,1.88-2.083,3.405-4.653,3.405H130.086z"/>
		<path id="path-3_94_" style="fill:#FBB713;" d="M199.799,73.498l-92.406-26.192v71.512l92.406-26.446V73.498z"/>
		<path id="path-4_94_" style="opacity:0.15;fill:#010100;enable-background:new    ;" d="M117.813,71.931l-8.118-22.02l-2.3-0.669
			l-0.002,69.576l92.406-26.446V79.773l-51.57,14.99C133.015,99.187,117.813,87.773,117.813,71.931z"/>
		<path id="path-5_93_" style="fill:#062635;" d="M73.915,173.878H65.81V56.931h8.105V173.878z"/>
		<path id="path-6_90_" style="opacity:0.35;fill:#010101;enable-background:new    ;" d="M73.915,63.62L65.81,74.038V56.931h8.105
			V63.62z"/>
		<path id="path-7_89_" style="fill:#062635;" d="M83.178,46.219c0,7.354-5.962,13.316-13.316,13.316s-13.317-5.962-13.317-13.316
			c0-7.355,5.963-13.316,13.317-13.316S83.178,38.864,83.178,46.219z"/>
		<path id="path-8_68_" style="fill:#FFFFFF;" d="M78.064,38.406c0,1.653-1.34,2.993-2.993,2.993s-2.993-1.34-2.993-2.993
			c0-1.654,1.34-2.994,2.993-2.994S78.064,36.752,78.064,38.406z"/>
		<path id="path-9_59_" style="opacity:0.35;fill:#010101;enable-background:new    ;" d="M75.071,54.326
			c-7.354,0-13.316-5.962-13.316-13.316c0-2.332,0.653-4.493,1.707-6.4c-4.104,2.269-6.917,6.588-6.917,11.609
			c0,7.354,5.963,13.316,13.317,13.316c5.022,0,9.341-2.812,11.609-6.916C79.564,53.672,77.404,54.326,75.071,54.326z"/>
		<path id="path-10_53_" style="fill:#FBB713;" d="M125.434,82.936c0,19.676-8.077,35.628-18.041,35.628
			c-9.963,0-18.04-15.952-18.04-35.628c0-19.678,8.077-35.629,18.04-35.629C117.357,47.306,125.434,63.257,125.434,82.936z"/>
		<path id="path-11_44_" style="opacity:0.4;fill:#010100;enable-background:new    ;" d="M125.434,82.936
			c0,19.676-8.077,35.628-18.041,35.628c-9.963,0-18.04-15.952-18.04-35.628c0-19.678,8.077-35.629,18.04-35.629
			C117.357,47.306,125.434,63.257,125.434,82.936z"/>
		<path id="path-12_38_" style="fill:#062635;" d="M106.948,48.093L72.639,82.402c-0.678,0.677-1.777,0.677-2.456,0l0,0
			c-0.678-0.68-0.678-1.779,0-2.457l34.309-34.308c0.678-0.678,1.778-0.678,2.456,0l0,0
			C107.627,46.316,107.627,47.416,106.948,48.093z"/>
		<path id="path-13_31_" style="fill:#062635;" d="M67.51,81.212l37.721,37.719c0.67,0.671,1.756,0.671,2.426,0l0,0
			c0.67-0.669,0.67-1.755,0-2.425l-37.722-37.72c-0.67-0.67-1.756-0.67-2.425,0l0,0C66.84,79.455,66.84,80.54,67.51,81.212z"/>
		<path id="path-14_27_" style="fill:#EDEDED;" d="M170.94,77.193c-0.319,0-0.644-0.042-0.966-0.132l-34.681-9.553
			c-1.927-0.53-3.058-2.522-2.527-4.451c0.53-1.927,2.521-3.071,4.451-2.528l34.681,9.553c1.927,0.53,3.058,2.523,2.528,4.451
			C173.984,76.138,172.527,77.193,170.94,77.193z"/>
		<path id="path-15_25_" style="fill:#2476FF;" d="M188.133,82.13h-5.923c-1.142,0-2.068-0.793-2.068-1.771
			c0-0.978,0.926-1.772,2.068-1.772h0.276c1.141,0,2.068-0.794,2.068-1.772s-0.927-1.771-2.068-1.771h-12.734
			c-1.143,0-2.069-0.793-2.069-1.772c0-0.978,0.926-1.771,2.069-1.771h15.302h16.82c1.142,0,2.068,0.793,2.068,1.772
			c0,0.978-0.926,1.771-2.068,1.771h-3.534c-1.142,0-2.068,0.793-2.068,1.771s0.926,1.772,2.068,1.772h16.82
			c1.142,0,2.068,0.794,2.068,1.772c0,0.978-0.926,1.771-2.068,1.771h-3.976H188.133z"/>
		<path id="path-16_20_" style="fill:#2476FF;" d="M151.47,69.967c-1.304,0-2.361,0.906-2.361,2.023
			c0,1.117,1.057,2.023,2.361,2.023h7.236c1.304,0,2.361-0.906,2.361-2.023c0-1.117-1.057-2.023-2.361-2.023H151.47z"/>
		<path id="path-17_18_" style="fill:#2476FF;" d="M152.359,93.019h-2.719c-0.525,0-0.951-0.45-0.951-1.005s0.426-1.005,0.951-1.005
			h0.126c0.524,0,0.95-0.45,0.95-1.005s-0.426-1.005-0.95-1.005h-5.847c-0.525,0-0.95-0.45-0.95-1.005s0.425-1.005,0.95-1.005h7.026
			h14.363c0.525,0,0.95,0.45,0.95,1.005s-0.425,1.005-0.95,1.005h-1.622c-0.525,0-0.95,0.45-0.95,1.005s0.425,1.005,0.95,1.005
			h7.723c0.524,0,0.95,0.45,0.95,1.005s-0.426,1.005-0.95,1.005h-1.825H152.359z"/>
		<path id="path-18_12_" style="fill:#2476FF;" d="M164.978,112.715h-2.72c-0.524,0-0.95-0.45-0.95-1.006
			c0-0.555,0.426-1.004,0.95-1.004h0.126c0.525,0,0.95-0.45,0.95-1.005s-0.425-1.006-0.95-1.006h-5.847
			c-0.524,0-0.95-0.448-0.95-1.004c0-0.555,0.426-1.005,0.95-1.005h7.027h14.363c0.525,0,0.949,0.45,0.949,1.005
			c0,0.556-0.424,1.004-0.949,1.004h-1.623c-0.524,0-0.95,0.451-0.95,1.006s0.426,1.005,0.95,1.005h7.724
			c0.524,0,0.949,0.449,0.949,1.004c0,0.556-0.425,1.006-0.949,1.006h-1.826H164.978z"/>
		<path id="path-19_10_" style="fill:#2476FF;" d="M164.002,57.998h-2.72c-0.525,0-0.95-0.45-0.95-1.006
			c0-0.554,0.425-1.004,0.95-1.004h0.126c0.525,0,0.949-0.45,0.949-1.005s-0.424-1.006-0.949-1.006h-5.847
			c-0.525,0-0.95-0.448-0.95-1.004s0.425-1.005,0.95-1.005h7.027h14.363c0.524,0,0.949,0.449,0.949,1.005s-0.425,1.004-0.949,1.004
			h-1.623c-0.525,0-0.949,0.451-0.949,1.006s0.424,1.006,0.949,1.006h7.723c0.525,0,0.95,0.449,0.95,1.004s-0.425,1.005-0.95,1.005
			h-1.825H164.002z"/>
	</g>
</g>
<g>
</g>
<g>
</g>
<g>
</g>
<g>
</g>
<g>
</g>
<g>
</g>
<g>
</g>
<g>
</g>
<g>
</g>
<g>
</g>
<g>
</g>
<g>
</g>
<g>
</g>
<g>
</g>
<g>
</g>
</svg>
