<?xml version="1.0" encoding="iso-8859-1"?>
<!-- Generator: Adobe Illustrator 19.0.0, SVG Export Plug-In . SVG Version: 6.00 Build 0)  -->
<svg version="1.1" id="Layer_1" xmlns="http://www.w3.org/2000/svg" xmlns:xlink="http://www.w3.org/1999/xlink" x="0px" y="0px"
	 viewBox="0 0 512 512" style="enable-background:new 0 0 512 512;" xml:space="preserve">
<path style="fill:#EAB03D;" d="M375.749,120.358V256l-99.964,35.697c0-15.355,2.446-68.404-10.087-75.35L375.749,120.358z"/>
<path style="fill:#69CCC2;" d="M256,136.24l19.915,95.479c-15.355,0-39.893,20.263-46.85,32.795L120.358,136.24H256z"/>
<path style="fill:#BAB031;" d="M231.927,239.266c0,15.355,17.4,31.162,29.932,38.131L136.24,391.642V256L231.927,239.266z"/>
<path style="fill:#E8564F;" d="M391.642,375.749H256L233.414,274.22c15.355,0,35.544-29.969,42.501-42.501L391.642,375.749z"/>
<path style="fill:#E6E6E6;" d="M275.794,220.312c12.532,6.946,21.012,20.333,21.012,35.688c0,7.18-1.851,13.926-5.118,19.794
	c-6.957,12.532-20.333,21.012-35.688,21.012c-7.191,0-13.938-1.862-19.806-5.118c-12.532-6.969-21-20.333-21-35.688
	c0-7.18,1.862-13.938,5.118-19.806c6.957-12.532,20.333-21.012,35.688-21.012C263.18,215.182,269.926,217.033,275.794,220.312z"/>
<path style="fill:#69CCC2;" d="M264.433,240.792c5.34,2.959,8.952,8.663,8.952,15.204c0,3.059-0.788,5.932-2.181,8.433
	c-2.964,5.34-8.663,8.952-15.204,8.952c-3.064,0-5.938-0.793-8.438-2.181c-5.34-2.969-8.947-8.663-8.947-15.204
	c0-3.059,0.793-5.938,2.181-8.438c2.964-5.34,8.663-8.952,15.204-8.952C259.059,238.607,261.932,239.395,264.433,240.792z"/>
<path style="fill:#73D8D0;" d="M120.358,136.24l99.954,99.954c-3.256,5.868-5.118,12.626-5.118,19.806H136.24H0L120.358,136.24z"/>
<path style="fill:#FC675B;" d="M512,256L391.642,375.749l-99.954-99.954c3.268-5.868,5.118-12.614,5.118-19.794h78.942H512z"/>
<path style="fill:#CEC73C;" d="M256,296.806v78.942V512L136.24,391.642l99.954-99.954C242.062,294.944,248.809,296.806,256,296.806z
	"/>
<path style="fill:#FCC447;" d="M256,0l119.749,120.358l-99.954,99.954c-5.868-3.279-12.614-5.13-19.794-5.13V136.24V0z"/>
<g>
</g>
<g>
</g>
<g>
</g>
<g>
</g>
<g>
</g>
<g>
</g>
<g>
</g>
<g>
</g>
<g>
</g>
<g>
</g>
<g>
</g>
<g>
</g>
<g>
</g>
<g>
</g>
<g>
</g>
</svg>
