<?xml version="1.0" encoding="iso-8859-1"?>
<!-- Generator: Adobe Illustrator 19.0.0, SVG Export Plug-In . SVG Version: 6.00 Build 0)  -->
<svg xmlns="http://www.w3.org/2000/svg" xmlns:xlink="http://www.w3.org/1999/xlink" version="1.1" id="Layer_1" x="0px" y="0px" viewBox="0 0 418.198 418.198" style="enable-background:new 0 0 418.198 418.198;" xml:space="preserve" width="512" height="512">
<g>
	<g>
		<rect x="190.682" y="143.961" style="fill:#997668;" width="36.835" height="274.236"/>
		<rect x="190.682" y="143.961" style="opacity:0.3;fill:#222222;" width="18.417" height="274.236"/>
		<polygon style="opacity:0.3;fill:#222222;" points="190.682,143.961 190.682,296.225 227.517,259.39 227.517,143.961   "/>
	</g>
	<g>
		<g>
			<path style="fill:#95D600;" d="M341.859,163.148l-75.766-75.767l-56.994,56.993l123.336,123.337     C348.333,239.557,365.463,186.752,341.859,163.148z"/>
			<polygon style="opacity:0.2;fill:#218649;" points="209.099,144.374 323.5,144.791 266.093,87.381    "/>
		</g>
		<g>
			<path style="fill:#FFC843;" d="M227.872,11.617l-75.767,75.765l56.994,56.993L332.436,21.038     C304.281,5.141,251.476-11.989,227.872,11.617z"/>
			<polygon style="opacity:0.1;fill:#222222;" points="209.099,144.374 209.514,29.974 152.105,87.381    "/>
		</g>
		<g>
			<path style="fill:#675DC6;" d="M76.339,125.603l75.767,75.767l56.994-56.996L85.761,21.039     C69.864,49.193,52.735,101.997,76.339,125.603z"/>
			<polygon style="opacity:0.3;fill:#222222;" points="209.099,144.374 94.697,143.961 152.105,201.37    "/>
		</g>
		<g>
			<path style="fill:#229CD2;" d="M190.326,277.136l75.767-75.767l-56.994-56.995L85.763,267.712     C113.916,283.608,166.722,300.741,190.326,277.136z"/>
			<polygon style="opacity:0.2;fill:#222222;" points="209.099,144.374 208.685,258.778 266.093,201.369    "/>
		</g>
		<g>
			<circle style="fill:#FFFFFF;" cx="209.099" cy="144.374" r="33.171"/>
			<path style="opacity:0.2;fill:#222222;" d="M209.099,111.204c-18.32,0-33.171,14.851-33.171,33.171     c0,18.32,14.851,33.172,33.171,33.172V111.204z"/>
		</g>
	</g>
</g>















</svg>
