<?xml version="1.0" encoding="iso-8859-1"?>
<!-- Generator: Adobe Illustrator 19.1.0, SVG Export Plug-In . SVG Version: 6.00 Build 0)  -->
<svg version="1.1" id="Capa_1" xmlns="http://www.w3.org/2000/svg" xmlns:xlink="http://www.w3.org/1999/xlink" x="0px" y="0px"
	 viewBox="0 0 432.725 432.725" style="enable-background:new 0 0 432.725 432.725;" xml:space="preserve">
<g>
	<path style="fill:#CCCCCC;" d="M216.361,110.25c-5.846,0-11.332,2.184-15.447,6.147c-4.067,3.914-6.307,9.104-6.307,14.616
		c0,11.45,9.759,20.766,21.754,20.766h0.004c5.845,0,11.331-2.183,15.446-6.147c4.065-3.916,6.304-9.107,6.304-14.618
		C238.115,119.564,228.357,110.25,216.361,110.25z"/>
	<path style="fill:#FF6666;" d="M216.361,100.25c3.342,0,6.562,0.506,9.59,1.438c8.69-23.467,13.087-56.939-8.712-91.688H97.915
		l99.798,96.111C203.101,102.308,209.569,100.25,216.361,100.25z"/>
	<path style="fill:#CC9933;" d="M190.321,112.879l-41.196-39.676l-38.872,37.438C140.947,100.801,169.313,105.489,190.321,112.879z"
		/>
	<path style="fill:#CC9933;" d="M234.996,106.127l41.394-39.865L237.28,28.596c10.297,29.715,5.406,57.179-2.309,77.515
		C234.98,106.116,234.988,106.121,234.996,106.127z"/>
	<path style="fill:#FFCC66;" d="M248.115,131.014c0,3.117-0.476,6.162-1.392,9.059c24.461,8.383,59.316,12.598,95.485-8.424V16.759
		l-100.048,96.354C245.902,118.159,248.115,124.339,248.115,131.014z"/>
	<path style="fill:#CC9933;" d="M242.406,149.154l41.192,39.671l38.887-37.448c-12.452,3.992-24.524,5.612-35.874,5.612
		C269.975,156.989,254.896,153.547,242.406,149.154z"/>
	<path style="fill:#FFCC66;" d="M184.608,131.014c0-3.115,0.475-6.156,1.39-9.051c-24.462-8.385-59.312-12.604-95.481,8.42v114.89
		l100.048-96.355C186.82,143.87,184.608,137.689,184.608,131.014z"/>
	<path style="fill:#CC9933;" d="M197.729,155.903l-41.396,39.866l39.115,37.668c-10.302-29.713-5.411-57.181,2.303-77.518
		C197.743,155.913,197.735,155.908,197.729,155.903z"/>
	<path style="fill:#FF6666;" d="M216.366,161.779L216.366,161.779c-0.002,0-0.006,0-0.006,0c-3.343,0-6.564-0.506-9.593-1.438
		c-8.688,23.468-13.078,56.946,8.718,91.688H334.81l-99.798-96.111C229.624,159.722,223.157,161.779,216.366,161.779z"/>
	<path style="fill:#663333;" d="M349.166,0.4c-1.847-0.781-3.981-0.391-5.426,1l-60.142,57.92L223.457,1.398
		C222.526,0.501,221.282,0,219.988,0H85.516c-2.039,0-3.874,1.238-4.637,3.13c-0.764,1.892-0.301,4.057,1.168,5.472l59.87,57.66
		l-59.87,57.66c-0.979,0.942-1.531,2.243-1.531,3.602v129.506c0,2.005,1.2,3.812,3.043,4.602c2.476,1.061,4.475-0.085,5.426-1
		l60.141-57.92l60.143,57.92c0.592,0.57,1.317,0.959,2.094,1.183v165.911c0,2.762,2.238,5,5,5s5-2.238,5-5V262.029h125.848
		c2.039,0,3.874-1.238,4.637-3.13c0.763-1.892,0.301-4.057-1.168-5.472l-59.871-57.66l59.871-57.658
		c0.979-0.942,1.531-2.243,1.531-3.602V5.002C352.209,2.997,351.011,1.186,349.166,0.4z M237.28,28.596l39.109,37.666
		l-41.394,39.865c-0.008-0.006-0.017-0.011-0.024-0.017C242.687,85.774,247.577,58.311,237.28,28.596z M238.115,131.014
		c0,5.511-2.238,10.702-6.304,14.618c-4.115,3.965-9.601,6.147-15.446,6.147h-0.004c-11.995,0-21.754-9.315-21.754-20.766
		c0-5.513,2.239-10.702,6.307-14.616c4.115-3.964,9.602-6.147,15.447-6.147C228.357,110.25,238.115,119.564,238.115,131.014z
		 M97.915,10h119.324c21.799,34.748,17.402,68.221,8.712,91.688c-3.027-0.932-6.248-1.438-9.59-1.438
		c-6.792,0-13.261,2.058-18.648,5.861L97.915,10z M149.125,73.203l41.196,39.676c-21.009-7.39-49.374-12.078-80.068-2.238
		L149.125,73.203z M90.516,245.273v-114.89c36.169-21.024,71.02-16.805,95.481-8.42c-0.915,2.895-1.39,5.936-1.39,9.051
		c0,6.676,2.213,12.856,5.956,17.904L90.516,245.273z M195.448,233.438l-39.115-37.668l41.396-39.866
		c0.007,0.005,0.015,0.01,0.022,0.016C190.037,176.257,185.147,203.725,195.448,233.438z M334.81,252.029H215.485
		c-21.796-34.742-17.406-68.221-8.718-91.688c3.028,0.933,6.25,1.438,9.593,1.438c0,0,0.004,0,0.005,0h0.001
		c6.791,0,13.258-2.058,18.646-5.861L334.81,252.029z M283.599,188.825l-41.192-39.671c12.489,4.393,27.568,7.835,44.205,7.835
		c11.35,0,23.422-1.62,35.874-5.612L283.599,188.825z M342.209,131.648c-36.169,21.021-71.024,16.807-95.485,8.424
		c0.916-2.896,1.392-5.941,1.392-9.059c0-6.675-2.213-12.854-5.954-17.901l100.048-96.354V131.648z"/>
</g>
<g>
</g>
<g>
</g>
<g>
</g>
<g>
</g>
<g>
</g>
<g>
</g>
<g>
</g>
<g>
</g>
<g>
</g>
<g>
</g>
<g>
</g>
<g>
</g>
<g>
</g>
<g>
</g>
<g>
</g>
</svg>
