<?xml version="1.0" encoding="iso-8859-1"?>
<!-- Generator: Adobe Illustrator 19.1.0, SVG Export Plug-In . SVG Version: 6.00 Build 0)  -->
<svg version="1.1" id="Capa_1" xmlns="http://www.w3.org/2000/svg" xmlns:xlink="http://www.w3.org/1999/xlink" x="0px" y="0px"
	 viewBox="0 0 218.332 218.332" style="enable-background:new 0 0 218.332 218.332;" xml:space="preserve">
<g>
	<g id="group-61svg">
		<path id="path-1_126_" style="fill:#2476FF;" d="M72.436,159.747h14.747c2.844,0,5.149,1.448,5.149,3.232
			c0,1.785-2.305,3.232-5.149,3.232h-0.686c-2.843,0-5.148,1.447-5.148,3.231c0,1.785,2.305,3.232,5.148,3.232h31.704
			c2.843,0,5.149,1.447,5.149,3.232c0,1.784-2.306,3.231-5.149,3.231h-38.1H38.225c-2.843,0-5.149-1.447-5.149-3.231
			c0-1.785,2.306-3.232,5.149-3.232h8.799c2.843,0,5.149-1.447,5.149-3.232c0-1.784-2.306-3.231-5.149-3.231H5.149
			c-2.845,0-5.149-1.447-5.149-3.232c0-1.784,2.304-3.232,5.149-3.232h9.897H72.436z"/>
		<path id="path-2_126_" style="fill:#FBB713;" d="M180.224,156.286c3.246,0,5.879-1.652,5.879-3.689c0-2.038-2.633-3.69-5.879-3.69
			h-18.015c-3.247,0-5.878,1.652-5.878,3.69c0,2.037,2.631,3.689,5.878,3.689H180.224z"/>
		<path id="path-3_126_" style="fill:#FBB713;" d="M167.418,46.122h14.748c2.843,0,5.148,1.446,5.148,3.231
			s-2.305,3.231-5.148,3.231h-0.686c-2.844,0-5.149,1.448-5.149,3.232c0,1.785,2.305,3.232,5.149,3.232h31.703
			c2.844,0,5.149,1.446,5.149,3.231c0,1.786-2.305,3.232-5.149,3.232h-38.1h-41.876c-2.843,0-5.148-1.446-5.148-3.232
			c0-1.785,2.305-3.231,5.148-3.231h8.799c2.844,0,5.149-1.447,5.149-3.232c0-1.784-2.305-3.232-5.149-3.232H100.13
			c-2.843,0-5.149-1.446-5.149-3.231s2.306-3.231,5.149-3.231h9.897H167.418z"/>
		<path id="path-4_125_" style="fill:#142A3B;" d="M117.206,22.061L88.63,50.369l22.684,22.473L147.896,36.6l20.211-20.022
			L117.206,22.061z"/>
		<path id="path-5_125_" style="opacity:0.35;fill:#040404;enable-background:new    ;" d="M117.206,22.061l-5.892,50.781
			L88.63,50.369L117.206,22.061z"/>
		<path id="path-6_124_" style="fill:#FF3A2F;" d="M162.574,78.676l-28.576-28.308l-22.684,22.474l36.582,36.237l20.212,20.025
			L162.574,78.676z"/>
		<path id="path-7_124_" style="opacity:0.5;fill:#FFFFFF;enable-background:new    ;" d="M162.574,78.676l-51.26-5.834
			l22.684-22.474L162.574,78.676z"/>
		<path id="path-8_121_" style="fill:#142A3B;" d="M111.314,201.757c-1.918,0-3.474-1.541-3.474-3.441V70.876
			c0-1.901,1.556-3.443,3.474-3.443s3.474,1.542,3.474,3.443v127.44C114.788,200.215,113.232,201.757,111.314,201.757z"/>
		<path id="path-9_115_" style="fill:#FFE56D;" d="M111.314,72.841l-36.583,36.237l-20.212,20.025l50.904-5.484l28.575-28.308
			L111.314,72.841z"/>
		<path id="path-10_107_" style="opacity:0.5;fill:#FFFFFF;enable-background:new    ;" d="M105.423,123.62l5.891-50.778
			l22.684,22.47L105.423,123.62z"/>
		<path id="path-11_94_" style="fill:#0CB04A;" d="M74.731,36.6L54.519,16.576l5.534,50.427l28.576,28.309l22.685-22.47L74.731,36.6
			z"/>
		<path id="path-12_82_" style="opacity:0.5;fill:#FFFFFF;enable-background:new    ;" d="M60.053,67.003l51.261,5.839
			l-22.685,22.47L60.053,67.003z"/>
		<path id="path-13_70_" style="fill:#FFFFFF;" d="M114.571,76.068c-1.799,1.784-4.716,1.784-6.516,0c-1.8-1.784-1.8-4.673,0-6.455
			c1.8-1.784,4.717-1.784,6.516,0C116.37,71.395,116.37,74.284,114.571,76.068z"/>
	</g>
</g>
<g>
</g>
<g>
</g>
<g>
</g>
<g>
</g>
<g>
</g>
<g>
</g>
<g>
</g>
<g>
</g>
<g>
</g>
<g>
</g>
<g>
</g>
<g>
</g>
<g>
</g>
<g>
</g>
<g>
</g>
</svg>
