<?xml version="1.0" encoding="iso-8859-1"?>
<!-- Generator: Adobe Illustrator 19.0.0, SVG Export Plug-In . SVG Version: 6.00 Build 0)  -->
<svg version="1.1" id="Layer_1" xmlns="http://www.w3.org/2000/svg" xmlns:xlink="http://www.w3.org/1999/xlink" x="0px" y="0px"
	 viewBox="0 0 470 470" style="enable-background:new 0 0 470 470;" xml:space="preserve">
<g>
	<path d="M50,5C22.43,5,0,27.43,0,55s22.43,50,50,50s50-22.43,50-50S77.57,5,50,5z M50,75c-11.028,0-20-8.972-20-20s8.972-20,20-20
		s20,8.972,20,20S61.028,75,50,75z"/>
	<polygon points="470,84 470,54 171,54 171,465 201,465 201,282.047 430,282.047 430,252.047 201,252.047 201,84 	"/>
</g>
<g>
</g>
<g>
</g>
<g>
</g>
<g>
</g>
<g>
</g>
<g>
</g>
<g>
</g>
<g>
</g>
<g>
</g>
<g>
</g>
<g>
</g>
<g>
</g>
<g>
</g>
<g>
</g>
<g>
</g>
</svg>
