<?xml version="1.0" encoding="iso-8859-1"?>
<!-- Generator: Adobe Illustrator 19.0.0, SVG Export Plug-In . SVG Version: 6.00 Build 0)  -->
<svg version="1.1" id="Layer_1" xmlns="http://www.w3.org/2000/svg" xmlns:xlink="http://www.w3.org/1999/xlink" x="0px" y="0px"
	 viewBox="0 0 483.076 483.076" style="enable-background:new 0 0 483.076 483.076;" xml:space="preserve">
<g>
	<path d="M100,54.038c0-27.57-22.43-50-50-50s-50,22.43-50,50s22.43,50,50,50S100,81.608,100,54.038z M50,74.038
		c-11.028,0-20-8.972-20-20s8.972-20,20-20s20,8.972,20,20S61.028,74.038,50,74.038z"/>
	<path d="M297.295,449.038c-100.907,0-183-82.094-183-183s82.093-183,183-183c66.052,0,127.218,35.816,159.629,93.472l26.151-14.701
		C445.359,94.717,374.172,53.038,297.295,53.038c-117.449,0-213,95.551-213,213s95.551,213,213,213
		c76.877,0,148.064-41.679,185.781-108.771l-26.151-14.701C424.513,413.221,363.347,449.038,297.295,449.038z"/>
</g>
<g>
</g>
<g>
</g>
<g>
</g>
<g>
</g>
<g>
</g>
<g>
</g>
<g>
</g>
<g>
</g>
<g>
</g>
<g>
</g>
<g>
</g>
<g>
</g>
<g>
</g>
<g>
</g>
<g>
</g>
</svg>
