<?xml version="1.0" encoding="iso-8859-1"?>
<!-- Generator: Adobe Illustrator 19.0.0, SVG Export Plug-In . SVG Version: 6.00 Build 0)  -->
<svg version="1.1" id="Layer_1" xmlns="http://www.w3.org/2000/svg" xmlns:xlink="http://www.w3.org/1999/xlink" x="0px" y="0px"
	 viewBox="0 0 455 455" style="enable-background:new 0 0 455 455;" xml:space="preserve">
<path d="M297.5,248.826V70c0-38.66-31.34-70-70-70c-38.66,0-70,31.34-70,70v178.826c-27.344,21.043-45,54.083-45,91.174
	c0,63.41,51.59,115,115,115s115-51.59,115-115C342.5,302.909,324.844,269.869,297.5,248.826z M227.5,385c-24.813,0-45-20.187-45-45
	c0-19.554,12.542-36.227,30-42.42V70h30v227.58c17.458,6.192,30,22.865,30,42.42C272.5,364.813,252.313,385,227.5,385z"/>
<g>
</g>
<g>
</g>
<g>
</g>
<g>
</g>
<g>
</g>
<g>
</g>
<g>
</g>
<g>
</g>
<g>
</g>
<g>
</g>
<g>
</g>
<g>
</g>
<g>
</g>
<g>
</g>
<g>
</g>
</svg>
