<?xml version="1.0" encoding="UTF-8" standalone="no"?>
<!-- Generator: Adobe Illustrator 19.0.0, SVG Export Plug-In . SVG Version: 6.00 Build 0)  -->

<svg
   xmlns:dc="http://purl.org/dc/elements/1.1/"
   xmlns:cc="http://creativecommons.org/ns#"
   xmlns:rdf="http://www.w3.org/1999/02/22-rdf-syntax-ns#"
   xmlns:svg="http://www.w3.org/2000/svg"
   xmlns="http://www.w3.org/2000/svg"
   xmlns:sodipodi="http://sodipodi.sourceforge.net/DTD/sodipodi-0.dtd"
   xmlns:inkscape="http://www.inkscape.org/namespaces/inkscape"
   version="1.1"
   id="Layer_1"
   x="0px"
   y="0px"
   viewBox="0 0 512 512"
   style="enable-background:new 0 0 512 512;"
   xml:space="preserve"
   inkscape:version="0.91 r13725"
   sodipodi:docname="firetruck_hq.svg"
   inkscape:export-filename="/home/michael/Documents/projects/nasaspaceapps/teamivory/public/images/firetruck_hq.png"
   inkscape:export-xdpi="8.79"
   inkscape:export-ydpi="8.79"><metadata
     id="metadata115"><rdf:RDF><cc:Work
         rdf:about=""><dc:format>image/svg+xml</dc:format><dc:type
           rdf:resource="http://purl.org/dc/dcmitype/StillImage" /></cc:Work></rdf:RDF></metadata><defs
     id="defs113" /><sodipodi:namedview
     pagecolor="#ffffff"
     bordercolor="#666666"
     borderopacity="1"
     objecttolerance="10"
     gridtolerance="10"
     guidetolerance="10"
     inkscape:pageopacity="0"
     inkscape:pageshadow="2"
     inkscape:window-width="1317"
     inkscape:window-height="744"
     id="namedview111"
     showgrid="false"
     inkscape:zoom="0.4609375"
     inkscape:cx="256"
     inkscape:cy="256"
     inkscape:window-x="49"
     inkscape:window-y="24"
     inkscape:window-maximized="1"
     inkscape:current-layer="Layer_1" /><g
     id="g3"><rect
       x="52.883"
       y="158.764"
       style="fill:#F95428;"
       width="23.153"
       height="324.969"
       id="rect5" /><rect
       x="436.246"
       y="158.764"
       style="fill:#F95428;"
       width="23.153"
       height="324.969"
       id="rect7" /></g><g
     id="g9"><rect
       x="52.883"
       y="158.764"
       style="fill:#E03F20;"
       width="23.153"
       height="44.495"
       id="rect11" /><rect
       x="436.246"
       y="158.764"
       style="fill:#E03F20;"
       width="22.77"
       height="44.495"
       id="rect13" /></g><polygon
     style="fill:#F95428;"
     points="459.394,108.027 459.012,109.017 459.012,178.52 52.879,178.52 52.879,105.081   51.979,102.618 255.945,28.685 "
     id="polygon15" /><polygon
     style="fill:#E03F20;"
     points="459.012,114.167 459.012,132.27 255.833,53.03 52.879,126.592 52.879,108.657   256.058,35.016 "
     id="polygon17" /><g
     id="g19"><path
       style="fill:#2BA5F7;"
       d="M204.583,230.724h-25.981c-2.853,0-5.165,2.312-5.165,5.165v32.509h36.31v-32.509   C209.748,233.037,207.436,230.724,204.583,230.724z"
       id="path21" /><path
       style="fill:#2BA5F7;"
       d="M268.932,230.724h-25.981c-2.853,0-5.165,2.312-5.165,5.165v32.509h36.31v-32.509   C274.097,233.037,271.785,230.724,268.932,230.724z"
       id="path23" /><path
       style="fill:#2BA5F7;"
       d="M333.281,230.724h-25.981c-2.853,0-5.165,2.312-5.165,5.165v32.509h36.31v-32.509   C338.446,233.037,336.134,230.724,333.281,230.724z"
       id="path25" /></g><g
     id="g27"><rect
       x="146"
       y="437.675"
       style="fill:#666666;"
       width="53.727"
       height="46.227"
       id="rect29" /><rect
       x="312.151"
       y="437.675"
       style="fill:#666666;"
       width="53.727"
       height="46.227"
       id="rect31" /></g><path
     style="fill:#E03F20;"
     d="M115.834,339.752h37.785v-52.815h-37.785c-4.051,0-7.336,3.285-7.336,7.336v38.143  C108.498,336.467,111.783,339.752,115.834,339.752z"
     id="path33" /><g
     id="g35"><path
       style="fill:#F95428;"
       d="M365.018,339.752h31.028c4.051,0,7.336-3.285,7.336-7.336v-38.143c0-4.051-3.285-7.336-7.336-7.336   h-31.028V339.752z"
       id="path37" /><path
       style="fill:#F95428;"
       d="M374.779,279.26v155.063H137.101v-157.29c0-6.578,3.846-12.257,9.412-14.899   c2.148-1.034,4.565-1.608,7.107-1.608h202.426C366.39,260.527,374.779,268.915,374.779,279.26z"
       id="path39" /></g><path
     style="fill:#CCCCCC;"
     d="M374.779,276.873v57.373H137.101v-61.275c0-6.873,5.572-12.444,12.444-12.444h208.887  C367.461,260.527,374.779,267.846,374.779,276.873z"
     id="path41" /><g
     id="g43"><path
       style="fill:#F2F2F2;"
       d="M368.531,279.22l0.626,55.028h-60.968l28.708-72.033h25.439   C369.207,262.213,368.531,272.347,368.531,279.22z"
       id="path45" /><polygon
       style="fill:#F2F2F2;"
       points="256.71,262.213 256.71,334.246 190.119,334.246 218.827,262.213  "
       id="polygon47" /><rect
       x="201.481"
       y="357.355"
       style="fill:#F2F2F2;"
       width="108.927"
       height="61.617"
       id="rect49" /></g><path
     style="fill:#F95428;"
     d="M374.779,269.938v73.798h-13.494V274.02h-98.593v69.717h-13.494V274.02h-98.604v69.717h-13.494  v-73.798c0-5.195,4.217-9.412,9.412-9.412h218.854C370.562,260.527,374.779,264.743,374.779,269.938z"
     id="path51" /><g
     id="g53"><rect
       x="323.969"
       y="382.532"
       style="fill:#F7B239;"
       width="37.107"
       height="22.489"
       id="rect55" /><rect
       x="150.802"
       y="382.532"
       style="fill:#F7B239;"
       width="37.107"
       height="22.489"
       id="rect57" /></g><g
     id="g59"><rect
       x="213.49"
       y="370.163"
       style="fill:#666666;"
       width="84.897"
       height="11.245"
       id="rect61" /><rect
       x="213.49"
       y="391.527"
       style="fill:#666666;"
       width="84.897"
       height="11.245"
       id="rect63" /></g><path
     style="fill:#E03F20;"
     d="M146.513,260.527v168.669h-9.412V269.938C137.101,264.743,141.318,260.527,146.513,260.527z"
     id="path65" /><path
     style="fill:#E6E6E6;"
     d="M379.568,416.264H132.313c-3.733,0-6.76,3.026-6.76,6.76v19.903c0,3.733,3.026,6.76,6.76,6.76  h247.256c3.733,0,6.76-3.026,6.76-6.76v-19.903C386.328,419.292,383.302,416.264,379.568,416.264z"
     id="path67" /><path
     style="fill:#CCCCCC;"
     d="M148.042,442.927v-19.903c0-3.733,3.026-6.76,6.76-6.76h-22.489c-3.733,0-6.76,3.026-6.76,6.76  v19.903c0,3.733,3.026,6.76,6.76,6.76h22.489C151.069,449.687,148.042,446.66,148.042,442.927z"
     id="path69" /><rect
     x="11.037"
     y="475.457"
     style="fill:#4D4D4D;"
     width="489.804"
     height="16.867"
     id="rect71" /><circle
     style="fill:#FFFFFF;"
     cx="255.939"
     cy="112.661"
     r="48.352"
     id="circle73" /><g
     id="g75"><polygon
       style="fill:#F95428;"
       points="505.871,135.209 255.838,37.695 5.746,128.343 0,112.484 256.055,19.676 512,119.495  "
       id="polygon77" /><path
       style="fill:#F95428;"
       d="M250.574,75.977c0,34.105-24.137,28.334-23.611,51.421c0.296,13.035,11.267,20.497,23.581,21.947   c-2.951-3.41-15.97-20.393,4.228-34.015c0.649,13.128,11.544,15.216,11.544,24.661c0,3.977-0.838,6.648-1.808,8.412   c10.162-2.656,18.773-9.739,20.172-21.529C288.352,95.915,250.574,75.977,250.574,75.977z"
       id="path79" /></g><g
     id="g81" /><g
     id="g83" /><g
     id="g85" /><g
     id="g87" /><g
     id="g89" /><g
     id="g91" /><g
     id="g93" /><g
     id="g95" /><g
     id="g97" /><g
     id="g99" /><g
     id="g101" /><g
     id="g103" /><g
     id="g105" /><g
     id="g107" /><g
     id="g109" /></svg>