<?xml version="1.0" encoding="UTF-8" standalone="no"?>
<!-- Generator: Adobe Illustrator 19.0.0, SVG Export Plug-In . SVG Version: 6.00 Build 0)  -->

<svg
   xmlns:dc="http://purl.org/dc/elements/1.1/"
   xmlns:cc="http://creativecommons.org/ns#"
   xmlns:rdf="http://www.w3.org/1999/02/22-rdf-syntax-ns#"
   xmlns:svg="http://www.w3.org/2000/svg"
   xmlns="http://www.w3.org/2000/svg"
   xmlns:sodipodi="http://sodipodi.sourceforge.net/DTD/sodipodi-0.dtd"
   xmlns:inkscape="http://www.inkscape.org/namespaces/inkscape"
   version="1.1"
   id="Layer_1"
   x="0px"
   y="0px"
   viewBox="0 0 512 512"
   style="enable-background:new 0 0 512 512;"
   xml:space="preserve"
   inkscape:version="0.91 r13725"
   sodipodi:docname="firetruck.svg"
   inkscape:export-filename="/home/michael/Documents/projects/nasaspaceapps/teamivory/public/images/firetruck.png"
   inkscape:export-xdpi="8.79"
   inkscape:export-ydpi="8.79"><metadata
     id="metadata97"><rdf:RDF><cc:Work
         rdf:about=""><dc:format>image/svg+xml</dc:format><dc:type
           rdf:resource="http://purl.org/dc/dcmitype/StillImage" /></cc:Work></rdf:RDF></metadata><defs
     id="defs95" /><sodipodi:namedview
     pagecolor="#ffffff"
     bordercolor="#666666"
     borderopacity="1"
     objecttolerance="10"
     gridtolerance="10"
     guidetolerance="10"
     inkscape:pageopacity="0"
     inkscape:pageshadow="2"
     inkscape:window-width="1317"
     inkscape:window-height="744"
     id="namedview93"
     showgrid="false"
     inkscape:zoom="0.4609375"
     inkscape:cx="256"
     inkscape:cy="256"
     inkscape:window-x="49"
     inkscape:window-y="24"
     inkscape:window-maximized="1"
     inkscape:current-layer="Layer_1" /><path
     style="fill:#E03F20;"
     d="M10.815,220.245h39.091v-92.134H10.815C4.843,128.111,0,132.953,0,138.926v70.504  C0,215.404,4.843,220.245,10.815,220.245z"
     id="path3" /><path
     style="fill:#F95428;"
     d="M462.093,220.245h39.091c5.973,0,10.815-4.842,10.815-10.815v-70.504  c0-5.973-4.842-10.815-10.815-10.815h-39.091V220.245z"
     id="path5" /><path
     style="fill:#CCCCCC;"
     d="M238.313,54.103v32.773h-63.339V54.103c0-6.283,5.094-11.377,11.377-11.377h40.586  C233.219,42.727,238.313,47.819,238.313,54.103z"
     id="path7" /><path
     style="fill:#2BA5F7;"
     d="M435.744,54.103v32.773h-63.339V54.103c0-6.283,5.094-11.377,11.377-11.377h40.586  C430.651,42.727,435.744,47.819,435.744,54.103z"
     id="path9" /><path
     style="fill:#CCCCCC;"
     d="M337.035,54.103v32.773h-63.339V54.103c0-6.283,5.094-11.377,11.377-11.377h40.586  C331.941,42.727,337.035,47.819,337.035,54.103z"
     id="path11" /><path
     style="fill:#2BA5F7;"
     d="M139.603,54.103v32.773H76.252V54.103c0-6.283,5.094-11.377,11.377-11.377h40.599  C134.509,42.727,139.603,47.819,139.603,54.103z"
     id="path13" /><polyline
     style="fill:#F95428;"
     points="463.308,358.444 463.308,82.041 48.697,82.041 48.697,358.444 "
     id="polyline15" /><g
     id="g17"><path
       style="fill:#CCCCCC;"
       d="M80.972,209.817v-88.345c0-4.107,3.329-7.435,7.435-7.435h143.238c4.107,0,7.435,3.329,7.435,7.435   v88.345c0,4.107-3.329,7.435-7.435,7.435H88.408C84.302,217.254,80.972,213.925,80.972,209.817z"
       id="path19" /><path
       style="fill:#CCCCCC;"
       d="M431.023,121.471v88.342c0,4.107-3.329,7.435-7.435,7.435H280.358c-4.107,0-7.435-3.329-7.435-7.435   v-88.342c0-4.107,3.329-7.435,7.435-7.435h143.228C427.693,114.036,431.023,117.364,431.023,121.471z"
       id="path21" /></g><g
     id="g23"><path
       style="fill:#F2F2F2;"
       d="M431.023,121.471v88.342c0,4.107-3.329,7.435-7.435,7.435h-88.883l40.201-103.214h48.682   C427.693,114.036,431.023,117.364,431.023,121.471z"
       id="path25" /><path
       style="fill:#F2F2F2;"
       d="M239.081,121.471v88.342c0,4.107-3.329,7.435-7.435,7.435h-88.883l40.201-103.214h48.682   C235.753,114.036,239.081,117.364,239.081,121.471z"
       id="path27" /><path
       style="fill:#F2F2F2;"
       d="M339.451,250.957H172.549c-6.386,0-11.563,5.177-11.563,11.563v95.927h190.027V262.52   C351.013,256.133,345.837,250.957,339.451,250.957z"
       id="path29" /></g><g
     id="g31"><rect
       x="371.291"
       y="289.575"
       style="fill:#F7B239;"
       width="70.839"
       height="47.543"
       id="rect33" /><rect
       x="69.866"
       y="289.575"
       style="fill:#F7B239;"
       width="70.839"
       height="47.543"
       id="rect35" /></g><g
     id="g37"><rect
       x="180.718"
       y="278.852"
       style="fill:#666666;"
       width="150.552"
       height="18.114"
       id="rect39" /><rect
       x="180.718"
       y="312.435"
       style="fill:#666666;"
       width="150.552"
       height="18.114"
       id="rect41" /></g><g
     id="g43"><rect
       x="64.221"
       y="417.449"
       style="fill:#808080;"
       width="93.722"
       height="51.826"
       id="rect45" /><rect
       x="354.058"
       y="417.449"
       style="fill:#808080;"
       width="93.722"
       height="51.826"
       id="rect47" /></g><g
     id="g49"><rect
       x="64.221"
       y="417.449"
       style="fill:#666666;"
       width="93.722"
       height="22.843"
       id="rect51" /><rect
       x="354.058"
       y="417.449"
       style="fill:#666666;"
       width="93.722"
       height="22.843"
       id="rect53" /></g><path
     style="fill:#CCCCCC;"
     d="M474.469,357.239H37.53c-4.963,0-8.986,4.024-8.986,8.986v43.45c0,4.963,4.024,8.986,8.986,8.986  h436.939c4.963,0,8.986-4.024,8.986-8.986v-43.45C483.456,361.262,479.432,357.239,474.469,357.239z"
     id="path55" /><g
     id="g57"><circle
       style="fill:#F7B239;"
       cx="65.501"
       cy="387.947"
       r="10.567"
       id="circle59" /><circle
       style="fill:#F7B239;"
       cx="446.501"
       cy="387.947"
       r="10.567"
       id="circle61" /></g><g
     id="g63" /><g
     id="g65" /><g
     id="g67" /><g
     id="g69" /><g
     id="g71" /><g
     id="g73" /><g
     id="g75" /><g
     id="g77" /><g
     id="g79" /><g
     id="g81" /><g
     id="g83" /><g
     id="g85" /><g
     id="g87" /><g
     id="g89" /><g
     id="g91" /></svg>