<?xml version="1.0" encoding="UTF-8" standalone="no"?>
<!-- Generator: Adobe Illustrator 19.0.0, SVG Export Plug-In . SVG Version: 6.00 Build 0)  -->

<svg
   xmlns:dc="http://purl.org/dc/elements/1.1/"
   xmlns:cc="http://creativecommons.org/ns#"
   xmlns:rdf="http://www.w3.org/1999/02/22-rdf-syntax-ns#"
   xmlns:svg="http://www.w3.org/2000/svg"
   xmlns="http://www.w3.org/2000/svg"
   xmlns:sodipodi="http://sodipodi.sourceforge.net/DTD/sodipodi-0.dtd"
   xmlns:inkscape="http://www.inkscape.org/namespaces/inkscape"
   version="1.1"
   id="Layer_1"
   x="0px"
   y="0px"
   viewBox="0 0 512 512"
   xml:space="preserve"
   inkscape:version="0.91 r13725"
   sodipodi:docname="fire_1.svg"
   style="enable-background:new 0 0 512 512;"
   inkscape:export-filename="/home/michael/Documents/projects/nasaspaceapps/teamivory/public/images/fire_1.png"
   inkscape:export-xdpi="8.79"
   inkscape:export-ydpi="8.79"><metadata
     id="metadata43"><rdf:RDF><cc:Work
         rdf:about=""><dc:format>image/svg+xml</dc:format><dc:type
           rdf:resource="http://purl.org/dc/dcmitype/StillImage" /><dc:title /></cc:Work></rdf:RDF></metadata><defs
     id="defs41" /><sodipodi:namedview
     pagecolor="#ffffff"
     bordercolor="#666666"
     borderopacity="1"
     objecttolerance="10"
     gridtolerance="10"
     guidetolerance="10"
     inkscape:pageopacity="0"
     inkscape:pageshadow="2"
     inkscape:window-width="1317"
     inkscape:window-height="744"
     id="namedview39"
     showgrid="false"
     inkscape:zoom="0.4609375"
     inkscape:cx="287.45763"
     inkscape:cy="256"
     inkscape:window-x="49"
     inkscape:window-y="24"
     inkscape:window-maximized="1"
     inkscape:current-layer="Layer_1" /><path
     style="fill:#FFB446;"
     d="M97.103,353.103C97.103,440.86,168.244,512,256,512l0,0c87.756,0,158.897-71.14,158.897-158.897  c0-88.276-44.138-158.897-14.524-220.69c0,0-47.27,8.828-73.752,79.448c0,0-88.276-88.276-51.394-211.862  c0,0-89.847,35.31-80.451,150.069c8.058,98.406-9.396,114.759-9.396,114.759c0-79.448-62.115-114.759-62.115-114.759  C141.241,247.172,97.103,273.655,97.103,353.103z"
     id="path3" /><path
     style="fill:#FFDC64;"
     d="M370.696,390.734c0,66.093-51.033,122.516-117.114,121.241  c-62.188-1.198-108.457-48.514-103.512-110.321c2.207-27.586,23.172-72.276,57.379-117.517l22.805,13.793  C229.517,242.023,256,167.724,256,167.724C273.396,246.007,370.696,266.298,370.696,390.734z"
     id="path5" /><path
     style="fill:#ff7f2a"
     d="M211.862,335.448c-8.828,52.966-26.483,72.249-26.483,105.931C185.379,476.69,216.998,512,256,512  l0,0c39.284,0,70.729-32.097,70.62-71.381c-0.295-105.508-61.792-158.136-61.792-158.136c8.828,52.966-17.655,79.448-17.655,79.448  C236.141,345.385,211.862,335.448,211.862,335.448z"
     id="path7" /><g
     id="g9" /><g
     id="g11" /><g
     id="g13" /><g
     id="g15" /><g
     id="g17" /><g
     id="g19" /><g
     id="g21" /><g
     id="g23" /><g
     id="g25" /><g
     id="g27" /><g
     id="g29" /><g
     id="g31" /><g
     id="g33" /><g
     id="g35" /><g
     id="g37" /></svg>