<?xml version="1.0" encoding="UTF-8" standalone="no"?>
<!-- Generator: Adobe Illustrator 19.0.0, SVG Export Plug-In . SVG Version: 6.00 Build 0)  -->

<svg
   xmlns:dc="http://purl.org/dc/elements/1.1/"
   xmlns:cc="http://creativecommons.org/ns#"
   xmlns:rdf="http://www.w3.org/1999/02/22-rdf-syntax-ns#"
   xmlns:svg="http://www.w3.org/2000/svg"
   xmlns="http://www.w3.org/2000/svg"
   xmlns:sodipodi="http://sodipodi.sourceforge.net/DTD/sodipodi-0.dtd"
   xmlns:inkscape="http://www.inkscape.org/namespaces/inkscape"
   version="1.1"
   id="Layer_1"
   x="0px"
   y="0px"
   viewBox="0 0 512 512"
   style="enable-background:new 0 0 512 512;"
   xml:space="preserve"
   inkscape:version="0.91 r13725"
   sodipodi:docname="hospital.svg"
   inkscape:export-filename="/home/michael/Documents/projects/nasaspaceapps/teamivory/public/images/hospital.png"
   inkscape:export-xdpi="8.7890625"
   inkscape:export-ydpi="8.7890625"><metadata
     id="metadata55"><rdf:RDF><cc:Work
         rdf:about=""><dc:format>image/svg+xml</dc:format><dc:type
           rdf:resource="http://purl.org/dc/dcmitype/StillImage" /></cc:Work></rdf:RDF></metadata><defs
     id="defs53" /><sodipodi:namedview
     pagecolor="#ffffff"
     bordercolor="#666666"
     borderopacity="1"
     objecttolerance="10"
     gridtolerance="10"
     guidetolerance="10"
     inkscape:pageopacity="0"
     inkscape:pageshadow="2"
     inkscape:window-width="1317"
     inkscape:window-height="744"
     id="namedview51"
     showgrid="false"
     inkscape:zoom="0.4609375"
     inkscape:cx="256"
     inkscape:cy="256"
     inkscape:window-x="49"
     inkscape:window-y="24"
     inkscape:window-maximized="1"
     inkscape:current-layer="Layer_1" /><path
     style="fill:#707487;"
     d="M293.926,28.444h-75.852c-20.916,0-37.926,17.01-37.926,37.926v47.407h18.963V75.852  c0-10.453,8.51-18.963,18.963-18.963h75.852c10.453,0,18.963,8.51,18.963,18.963v37.926h18.963V66.37  C331.852,45.454,314.842,28.444,293.926,28.444z"
     id="path3" /><g
     id="g5"><rect
       x="180.148"
       y="85.333"
       style="fill:#5B5D6E;"
       width="18.963"
       height="28.444"
       id="rect7" /><rect
       x="312.889"
       y="85.333"
       style="fill:#5B5D6E;"
       width="18.963"
       height="28.444"
       id="rect9" /></g><path
     style="fill:#FF5050;"
     d="M483.556,483.556H28.444C12.735,483.556,0,470.821,0,455.111v-322.37  c0-15.71,12.735-28.444,28.444-28.444h455.111c15.71,0,28.444,12.735,28.444,28.444v322.37  C512,470.82,499.264,483.556,483.556,483.556z"
     id="path11" /><circle
     style="fill:#E4EAF8;"
     cx="256"
     cy="284.444"
     r="132.741"
     id="circle13" /><circle
     style="fill:#FFFFFF;"
     cx="256"
     cy="284.444"
     r="113.778"
     id="circle15" /><path
     style="fill:#FF5050;"
     d="M312.889,265.481h-37.926v-37.926c0-5.236-4.245-9.481-9.481-9.481h-18.963  c-5.236,0-9.481,4.245-9.481,9.481v37.926h-37.926c-5.236,0-9.481,4.245-9.481,9.481v18.963c0,5.236,4.245,9.481,9.481,9.481h37.926  v37.926c0,5.236,4.245,9.481,9.481,9.481h18.963c5.236,0,9.481-4.245,9.481-9.481v-37.926h37.926c5.236,0,9.481-4.245,9.481-9.481  v-18.963C322.37,269.726,318.125,265.481,312.889,265.481z"
     id="path17" /><path
     style="fill:#C84146;"
     d="M483.556,455.111H28.444C12.735,455.111,0,442.376,0,426.667v28.444  c0,15.71,12.735,28.444,28.444,28.444h455.111c15.71,0,28.444-12.735,28.444-28.444v-28.444  C512,442.376,499.264,455.111,483.556,455.111z"
     id="path19" /><g
     id="g21" /><g
     id="g23" /><g
     id="g25" /><g
     id="g27" /><g
     id="g29" /><g
     id="g31" /><g
     id="g33" /><g
     id="g35" /><g
     id="g37" /><g
     id="g39" /><g
     id="g41" /><g
     id="g43" /><g
     id="g45" /><g
     id="g47" /><g
     id="g49" /></svg>