<?xml version="1.0" encoding="UTF-8" standalone="no"?>
<!-- Generator: Adobe Illustrator 18.1.1, SVG Export Plug-In . SVG Version: 6.00 Build 0)  -->

<svg
   xmlns:dc="http://purl.org/dc/elements/1.1/"
   xmlns:cc="http://creativecommons.org/ns#"
   xmlns:rdf="http://www.w3.org/1999/02/22-rdf-syntax-ns#"
   xmlns:svg="http://www.w3.org/2000/svg"
   xmlns="http://www.w3.org/2000/svg"
   xmlns:sodipodi="http://sodipodi.sourceforge.net/DTD/sodipodi-0.dtd"
   xmlns:inkscape="http://www.inkscape.org/namespaces/inkscape"
   version="1.1"
   id="Capa_1"
   x="0px"
   y="0px"
   viewBox="0 0 90 90"
   style="enable-background:new 0 0 90 90;"
   xml:space="preserve"
   inkscape:version="0.91 r13725"
   sodipodi:docname="water.svg"><metadata
     id="metadata41"><rdf:RDF><cc:Work
         rdf:about=""><dc:format>image/svg+xml</dc:format><dc:type
           rdf:resource="http://purl.org/dc/dcmitype/StillImage" /></cc:Work></rdf:RDF></metadata><defs
     id="defs39" /><sodipodi:namedview
     pagecolor="#ffffff"
     bordercolor="#666666"
     borderopacity="1"
     objecttolerance="10"
     gridtolerance="10"
     guidetolerance="10"
     inkscape:pageopacity="0"
     inkscape:pageshadow="2"
     inkscape:window-width="727"
     inkscape:window-height="480"
     id="namedview37"
     showgrid="false"
     inkscape:zoom="2.6222222"
     inkscape:cx="45"
     inkscape:cy="45"
     inkscape:window-x="59"
     inkscape:window-y="34"
     inkscape:window-maximized="0"
     inkscape:current-layer="Capa_1" /><g
     id="g3"
     style="fill:#c8c8c8;fill-opacity:1"><path
       style="fill:#c8c8c8;fill-opacity:1"
       d="M8.219,26.79c8.736-7.502,15.637-13.433,34.359-2.854c8.994,5.081,16.249,6.999,22.289,6.998   c10.575,0,17.426-5.883,23.352-10.975c2.113-1.814,2.385-5.035,0.607-7.194s-4.932-2.438-7.045-0.621   c-8.735,7.505-15.635,13.434-34.363,2.853c-24.739-13.975-36.326-4.02-45.637,3.977c-2.112,1.815-2.385,5.036-0.607,7.195   C2.951,28.327,6.105,28.606,8.219,26.79z M81.781,37.678c-8.735,7.503-15.635,13.433-34.363,2.853   C22.679,26.555,11.092,36.51,1.781,44.508c-2.112,1.816-2.385,5.037-0.607,7.193c1.777,2.159,4.932,2.438,7.045,0.622   c8.736-7.503,15.637-13.433,34.359-2.855c8.994,5.081,16.249,7,22.289,7c10.575,0,17.426-5.884,23.352-10.975   c2.113-1.816,2.385-5.037,0.607-7.194C87.049,36.138,83.895,35.861,81.781,37.678z M81.781,63.209   c-8.735,7.504-15.635,13.433-34.363,2.854C22.679,52.087,11.092,62.042,1.781,70.04c-2.112,1.815-2.385,5.037-0.607,7.196   c1.777,2.156,4.932,2.436,7.045,0.62C16.955,70.351,23.855,64.424,42.578,75c8.994,5.083,16.249,7,22.289,7   c10.575,0,17.426-5.884,23.352-10.974c2.113-1.815,2.385-5.038,0.607-7.196C87.048,61.672,83.895,61.395,81.781,63.209z"
       id="path5" /></g><g
     id="g7" /><g
     id="g9" /><g
     id="g11" /><g
     id="g13" /><g
     id="g15" /><g
     id="g17" /><g
     id="g19" /><g
     id="g21" /><g
     id="g23" /><g
     id="g25" /><g
     id="g27" /><g
     id="g29" /><g
     id="g31" /><g
     id="g33" /><g
     id="g35" /></svg>