<?xml version="1.0" encoding="UTF-8" standalone="no"?>
<!-- Generator: Adobe Illustrator 19.0.0, SVG Export Plug-In . SVG Version: 6.00 Build 0)  -->

<svg
   xmlns:dc="http://purl.org/dc/elements/1.1/"
   xmlns:cc="http://creativecommons.org/ns#"
   xmlns:rdf="http://www.w3.org/1999/02/22-rdf-syntax-ns#"
   xmlns:svg="http://www.w3.org/2000/svg"
   xmlns="http://www.w3.org/2000/svg"
   xmlns:sodipodi="http://sodipodi.sourceforge.net/DTD/sodipodi-0.dtd"
   xmlns:inkscape="http://www.inkscape.org/namespaces/inkscape"
   version="1.1"
   id="Layer_1"
   x="0px"
   y="0px"
   viewBox="0 0 280.027 280.027"
   style="enable-background:new 0 0 280.027 280.027;"
   xml:space="preserve"
   inkscape:version="0.91 r13725"
   sodipodi:docname="water_1.svg"
   inkscape:export-filename="/home/michael/Documents/projects/nasaspaceapps/teamivory/public/images/water_1.png"
   inkscape:export-xdpi="16.07"
   inkscape:export-ydpi="16.07"><metadata
     id="metadata45"><rdf:RDF><cc:Work
         rdf:about=""><dc:format>image/svg+xml</dc:format><dc:type
           rdf:resource="http://purl.org/dc/dcmitype/StillImage" /></cc:Work></rdf:RDF></metadata><defs
     id="defs43" /><sodipodi:namedview
     pagecolor="#ffffff"
     bordercolor="#666666"
     borderopacity="1"
     objecttolerance="10"
     gridtolerance="10"
     guidetolerance="10"
     inkscape:pageopacity="0"
     inkscape:pageshadow="2"
     inkscape:window-width="1317"
     inkscape:window-height="744"
     id="namedview41"
     showgrid="false"
     inkscape:zoom="0.84277585"
     inkscape:cx="-67.040364"
     inkscape:cy="140.0135"
     inkscape:window-x="49"
     inkscape:window-y="24"
     inkscape:window-maximized="1"
     inkscape:current-layer="Layer_1" /><g
     id="g3"><path
       style="fill:#3CAED6;"
       d="M245.023,175.017c0-56.005-96.259-165.391-104.135-174.142l0,0l0,0l0,0   c0,0-105.885,116.386-105.885,174.142s47.255,105.01,105.01,105.01c3.5,0,7.876,0,11.376-0.875c0.875,0,1.75,0,2.625-0.875   c2.625,0,5.251-0.875,7.876-0.875c0.875,0,1.75-0.875,3.5-0.875c2.625-0.875,5.251-0.875,7.876-1.75   c0.875,0,1.75-0.875,2.625-0.875c2.625-0.875,5.251-1.75,7.876-2.625c0.875,0,1.75-0.875,1.75-0.875   c2.625-0.875,5.251-2.625,7.876-4.375c0.875,0,0.875-0.875,1.75-0.875c2.625-1.75,5.251-3.5,7.876-5.251c0,0,0.875,0,0.875-0.875   c2.625-1.75,5.251-4.375,7.876-6.126l0,0C231.897,232.773,245.023,205.645,245.023,175.017z"
       id="path5" /><path
       style="fill:#63BFDE;"
       d="M183.768,140.014c-9.626,0-17.502,7.876-17.502,17.502c0,9.626,7.876,17.502,17.502,17.502   c9.626,0,17.502-7.876,17.502-17.502C201.27,147.889,193.393,140.014,183.768,140.014z"
       id="path7" /><path
       style="fill:#369DC0;"
       d="M148.764,271.276c-57.756,0-105.01-47.255-105.01-105.01c0-48.13,71.757-136.513,97.134-165.391   L140.014,0c0,0-105.01,117.261-105.01,175.017s47.255,105.01,105.01,105.01c31.503,0,59.506-14.001,78.758-35.003   C199.518,260.775,175.891,271.276,148.764,271.276z"
       id="path9" /></g><g
     id="g11" /><g
     id="g13" /><g
     id="g15" /><g
     id="g17" /><g
     id="g19" /><g
     id="g21" /><g
     id="g23" /><g
     id="g25" /><g
     id="g27" /><g
     id="g29" /><g
     id="g31" /><g
     id="g33" /><g
     id="g35" /><g
     id="g37" /><g
     id="g39" /></svg>