<?xml version="1.0" encoding="UTF-8" standalone="no"?>
<!-- Generator: Adobe Illustrator 19.0.0, SVG Export Plug-In . SVG Version: 6.00 Build 0)  -->

<svg
   xmlns:dc="http://purl.org/dc/elements/1.1/"
   xmlns:cc="http://creativecommons.org/ns#"
   xmlns:rdf="http://www.w3.org/1999/02/22-rdf-syntax-ns#"
   xmlns:svg="http://www.w3.org/2000/svg"
   xmlns="http://www.w3.org/2000/svg"
   xmlns:sodipodi="http://sodipodi.sourceforge.net/DTD/sodipodi-0.dtd"
   xmlns:inkscape="http://www.inkscape.org/namespaces/inkscape"
   version="1.1"
   id="Layer_1"
   x="0px"
   y="0px"
   viewBox="0 0 456.383 456.383"
   style="enable-background:new 0 0 456.383 456.383;"
   xml:space="preserve"
   inkscape:version="0.91 r13725"
   sodipodi:docname="wind.svg"><metadata
     id="metadata47"><rdf:RDF><cc:Work
         rdf:about=""><dc:format>image/svg+xml</dc:format><dc:type
           rdf:resource="http://purl.org/dc/dcmitype/StillImage" /></cc:Work></rdf:RDF></metadata><defs
     id="defs45" /><sodipodi:namedview
     pagecolor="#ffffff"
     bordercolor="#666666"
     borderopacity="1"
     objecttolerance="10"
     gridtolerance="10"
     guidetolerance="10"
     inkscape:pageopacity="0"
     inkscape:pageshadow="2"
     inkscape:window-width="727"
     inkscape:window-height="480"
     id="namedview43"
     showgrid="false"
     inkscape:zoom="0.51710954"
     inkscape:cx="228.1915"
     inkscape:cy="228.1915"
     inkscape:window-x="59"
     inkscape:window-y="34"
     inkscape:window-maximized="0"
     inkscape:current-layer="Layer_1" /><g
     id="g3"
     style="fill:#c8c8c8;fill-opacity:1"><path
       d="M318.383,100.191c0-31.981-26.019-58-58-58h-10v30h10c15.439,0,28,12.561,28,28s-12.561,28-28,28h-259v30h259   C292.364,158.191,318.383,132.173,318.383,100.191z"
       id="path5"
       style="fill:#c8c8c8;fill-opacity:1" /><path
       d="M335.383,298.191h-334v30h334c15.439,0,28,12.561,28,28s-12.561,28-28,28h-10v30h10c31.981,0,58-26.019,58-58   S367.364,298.191,335.383,298.191z"
       id="path7"
       style="fill:#c8c8c8;fill-opacity:1" /><rect
       x="137.383"
       y="213.191"
       width="319"
       height="30"
       id="rect9"
       style="fill:#c8c8c8;fill-opacity:1" /><rect
       y="213.191"
       width="107.383"
       height="30"
       id="rect11"
       style="fill:#c8c8c8;fill-opacity:1" /></g><g
     id="g13" /><g
     id="g15" /><g
     id="g17" /><g
     id="g19" /><g
     id="g21" /><g
     id="g23" /><g
     id="g25" /><g
     id="g27" /><g
     id="g29" /><g
     id="g31" /><g
     id="g33" /><g
     id="g35" /><g
     id="g37" /><g
     id="g39" /><g
     id="g41" /></svg>