<?xml version="1.0" encoding="UTF-8" standalone="no"?>
<!-- Generator: Adobe Illustrator 19.0.0, SVG Export Plug-In . SVG Version: 6.00 Build 0)  -->

<svg
   xmlns:dc="http://purl.org/dc/elements/1.1/"
   xmlns:cc="http://creativecommons.org/ns#"
   xmlns:rdf="http://www.w3.org/1999/02/22-rdf-syntax-ns#"
   xmlns:svg="http://www.w3.org/2000/svg"
   xmlns="http://www.w3.org/2000/svg"
   xmlns:sodipodi="http://sodipodi.sourceforge.net/DTD/sodipodi-0.dtd"
   xmlns:inkscape="http://www.inkscape.org/namespaces/inkscape"
   version="1.1"
   id="Layer_1"
   x="0px"
   y="0px"
   viewBox="0 0 511.999 511.999"
   style="enable-background:new 0 0 511.999 511.999;"
   xml:space="preserve"
   inkscape:version="0.91 r13725"
   sodipodi:docname="wind-intensity.svg"><metadata
     id="metadata47"><rdf:RDF><cc:Work
         rdf:about=""><dc:format>image/svg+xml</dc:format><dc:type
           rdf:resource="http://purl.org/dc/dcmitype/StillImage" /></cc:Work></rdf:RDF></metadata><defs
     id="defs45" /><sodipodi:namedview
     pagecolor="#ffffff"
     bordercolor="#666666"
     borderopacity="1"
     objecttolerance="10"
     gridtolerance="10"
     guidetolerance="10"
     inkscape:pageopacity="0"
     inkscape:pageshadow="2"
     inkscape:window-width="1317"
     inkscape:window-height="744"
     id="namedview43"
     showgrid="false"
     inkscape:zoom="0.46093841"
     inkscape:cx="255.9995"
     inkscape:cy="255.9995"
     inkscape:window-x="49"
     inkscape:window-y="24"
     inkscape:window-maximized="1"
     inkscape:current-layer="Layer_1" /><path
     style="fill:#cccccc"
     d="M449.938,193.94V23.274c0-9.413-5.669-17.9-14.367-21.502c-8.696-3.6-18.708-1.612-25.363,5.046  l-68.876,68.878L272.454,6.817c-4.364-4.364-10.283-6.816-16.455-6.816L85.332,0.002c-9.413,0-17.898,5.669-21.501,14.365  c-3.601,8.699-1.61,18.708,5.046,25.363l68.878,68.878l-68.878,68.875c-4.366,4.364-6.817,10.283-6.817,16.457v170.667  c0,9.413,5.669,17.9,14.367,21.501c2.88,1.193,5.904,1.773,8.901,1.773c6.056,0,12.007-2.366,16.46-6.819l68.878-68.878  l62.061,62.061l6.817,6.816c4.364,4.364,10.283,6.814,16.455,6.814h23.273h147.394c9.413,0,17.898-5.671,21.501-14.367  c3.601-8.696,1.61-18.707-5.046-25.363l-68.876-68.873l68.878-68.876C447.487,206.031,449.938,200.111,449.938,193.94z"
     id="path3" /><path
     style="fill:#4d4d4d"
     d="M239.544,381.062l-6.817-6.817v114.482c0,12.853,10.42,23.273,23.273,23.273  c12.853,0,23.273-10.42,23.273-23.273v-100.85h-23.273C249.827,387.877,243.906,385.427,239.544,381.062z"
     id="path5" /><path
     style="fill:#999999"
     d="M211.275,206.826c-0.698-2.428-1.206-4.937-1.503-7.512c-0.203-1.764-0.318-3.555-0.318-5.373  c0-1.776,0.109-3.525,0.303-5.252c0.222-1.972,0.566-3.905,1.027-5.793c0.045-0.194,0.085-0.393,0.135-0.586  c0.033-0.127,0.074-0.253,0.107-0.38c0.079-0.293,0.164-0.586,0.248-0.877c0.093-0.318,0.172-0.638,0.272-0.953  c0.022-0.065,0.047-0.13,0.067-0.195c0.209-0.661,0.428-1.319,0.666-1.966c0.022-0.056,0.045-0.109,0.065-0.164  c0.329-0.887,0.689-1.759,1.071-2.621c0.11-0.251,0.23-0.496,0.348-0.746c0.285-0.614,0.579-1.224,0.889-1.823  c0.14-0.268,0.282-0.534,0.427-0.799c0.32-0.591,0.652-1.173,0.998-1.747c0.14-0.231,0.276-0.462,0.417-0.694  c0.416-0.661,0.844-1.311,1.289-1.95c0.084-0.123,0.164-0.247,0.25-0.366c1.128-1.587,2.352-3.101,3.665-4.535  c0.048-0.051,0.099-0.101,0.147-0.154c0.534-0.577,1.088-1.134,1.651-1.683c0.83-0.808,1.679-1.598,2.566-2.344  c4.918-4.138,10.704-7.269,17.048-9.093c-0.977-1.652-2.15-3.224-3.57-4.644l-52.418-52.421c-4.364-4.364-10.283-6.817-16.455-6.817  s-12.093,2.453-16.455,6.817l0,0l-16.455,16.455l-68.878,68.875c-4.364,4.364-6.816,10.283-6.816,16.457v170.667  c0,9.413,5.669,17.9,14.367,21.501c2.88,1.193,5.904,1.773,8.901,1.773c6.056,0,12.007-2.366,16.46-6.819l68.878-68.878  l16.455-16.457l16.457-16.455l22.303-22.305l13.663-13.661c1.398-1.398,2.577-2.971,3.565-4.647  c-7.668-2.205-14.53-6.318-20.021-11.809C217.594,221.36,213.481,214.496,211.275,206.826z"
     id="path7" /><path
     style="fill:#4d4d4d"
     d="M302.008,186.85c-0.303-1.978-0.743-3.91-1.285-5.8c-1.462-5.078-3.764-9.798-6.746-14.002  c-1.52-2.146-3.21-4.166-5.067-6.021c-1.044-1.044-2.14-2.039-3.278-2.98c-0.009-0.008-0.019-0.016-0.028-0.023  c-0.076-0.064-0.155-0.121-0.23-0.183c-4.796-3.907-10.384-6.869-16.485-8.625c-3.361-0.967-6.87-1.578-10.496-1.763  c-0.794-0.04-1.592-0.061-2.396-0.061c-4.475,0-8.794,0.642-12.89,1.821c-6.344,1.825-12.13,4.956-17.048,9.093  c-6.116,5.143-10.89,11.829-13.718,19.461c-0.02,0.056-0.043,0.109-0.065,0.164c-0.236,0.649-0.456,1.305-0.666,1.966  c-0.02,0.065-0.045,0.13-0.067,0.195c-0.098,0.315-0.178,0.636-0.272,0.953c-0.084,0.29-0.169,0.582-0.248,0.877  c-0.033,0.127-0.074,0.251-0.107,0.38c-0.05,0.194-0.09,0.393-0.135,0.586c-0.461,1.89-0.807,3.821-1.027,5.793  c-0.194,1.725-0.303,3.475-0.303,5.252c0,1.818,0.115,3.61,0.318,5.373c0.296,2.576,0.804,5.084,1.503,7.512  c2.206,7.671,6.319,14.535,11.812,20.025c0.686,0.686,1.393,1.351,2.121,1.994c5.097,4.496,11.191,7.886,17.9,9.816  c1.891,0.545,3.821,0.985,5.803,1.288c2.312,0.354,4.679,0.537,7.087,0.537c2.292,0,4.541-0.174,6.743-0.492  c0.115-0.017,0.231-0.028,0.346-0.045c1.978-0.301,3.911-0.743,5.8-1.285c4.354-1.252,8.442-3.12,12.17-5.508  c0.951-0.61,1.888-1.243,2.793-1.918l0.002-0.002c1.79-1.339,3.483-2.805,5.063-4.386c5.492-5.491,9.602-12.353,11.81-20.022  c0.698-2.431,1.206-4.94,1.503-7.516c0.203-1.764,0.318-3.555,0.318-5.373C302.544,191.529,302.361,189.162,302.008,186.85z"
     id="path9" /><path
     style="fill:#999999"
     d="M435.571,1.771c-8.696-3.6-18.708-1.612-25.363,5.046l-68.876,68.878l16.454,16.455  c9.089,9.089,9.089,23.824,0,32.912l-52.419,52.419c-1.42,1.421-2.991,2.593-4.644,3.57c0.543,1.89,0.982,3.82,1.285,5.8  c0.354,2.312,0.537,4.679,0.537,7.089c0,1.818-0.115,3.61-0.318,5.373c-0.296,2.576-0.805,5.084-1.503,7.516  c-2.208,7.668-6.318,14.531-11.81,20.022c-1.579,1.581-3.271,3.046-5.063,4.386l-0.002,0.002c-0.905,0.675-1.84,1.308-2.793,1.918  c-3.728,2.388-7.817,4.256-12.17,5.508c0.976,1.652,2.149,3.224,3.57,4.644l52.419,52.421c4.544,4.546,10.501,6.817,16.455,6.817  c5.955,0,11.913-2.273,16.455-6.816l16.458-16.458l68.878-68.876c4.364-4.364,6.817-10.285,6.817-16.455V23.274  C449.938,13.861,444.269,5.374,435.571,1.771z"
     id="path11" /><g
     id="g13" /><g
     id="g15" /><g
     id="g17" /><g
     id="g19" /><g
     id="g21" /><g
     id="g23" /><g
     id="g25" /><g
     id="g27" /><g
     id="g29" /><g
     id="g31" /><g
     id="g33" /><g
     id="g35" /><g
     id="g37" /><g
     id="g39" /><g
     id="g41" /></svg>